<mxfile host="65bd71144e">
    <diagram id="niPRL1f2Gw76KjAHTD3v" name="Page-1">
        <mxGraphModel dx="1731" dy="1393" grid="0" gridSize="10" guides="1" tooltips="1" connect="1" arrows="1" fold="1" page="0" pageScale="1" pageWidth="200" pageHeight="100" background="none" math="0" shadow="0">
            <root>
                <mxCell id="0"/>
                <mxCell id="1" parent="0"/>
                <mxCell id="2" value="&lt;p style=&quot;line-height: 120%;&quot;&gt;&lt;/p&gt;&lt;h2 style=&quot;line-height: 120%;&quot;&gt;&lt;br&gt;&lt;/h2&gt;&lt;p&gt;&lt;/p&gt;" style="whiteSpace=wrap;html=1;align=left;movable=0;resizable=0;rotatable=0;deletable=0;editable=0;connectable=0;" vertex="1" parent="1">
                    <mxGeometry x="151.5" y="130" width="257" height="90" as="geometry"/>
                </mxCell>
                <mxCell id="4" value="&lt;font style=&quot;font-size: 10px;&quot;&gt;User &lt;font style=&quot;font-size: 10px;&quot;&gt;Layer - GUI&lt;/font&gt;&lt;/font&gt;" style="text;html=1;align=center;verticalAlign=middle;resizable=0;points=[];autosize=1;fontSize=18;fillColor=none;fontColor=#ffffff;strokeColor=none;movable=0;rotatable=0;deletable=0;editable=0;connectable=0;" vertex="1" parent="1">
                    <mxGeometry x="224.5" y="120" width="100" height="40" as="geometry"/>
                </mxCell>
                <mxCell id="129" style="edgeStyle=none;jumpSize=6;html=1;entryX=0;entryY=0.5;entryDx=0;entryDy=0;strokeColor=#2D7600;fontSize=9;fontColor=#FFFFFF;startArrow=none;startFill=0;endArrow=classic;endFill=1;startSize=2;endSize=2;strokeWidth=1;movable=0;resizable=0;rotatable=0;deletable=0;editable=0;connectable=0;" edge="1" parent="1" source="6" target="7">
                    <mxGeometry relative="1" as="geometry"/>
                </mxCell>
                <mxCell id="6" value="&lt;font style=&quot;font-size: 10px;&quot;&gt;&lt;br style=&quot;font-size: 10px;&quot;&gt;User Interface&lt;br style=&quot;font-size: 10px;&quot;&gt;&lt;/font&gt;" style="whiteSpace=wrap;html=1;labelBackgroundColor=#18141D;strokeColor=default;fontSize=10;fontColor=#FFFFFF;fillColor=none;gradientColor=default;direction=west;align=center;verticalAlign=top;horizontal=1;spacing=-3;movable=0;resizable=0;rotatable=0;deletable=0;editable=0;connectable=0;" vertex="1" parent="1">
                    <mxGeometry x="171.5" y="160" width="90" height="40" as="geometry"/>
                </mxCell>
                <mxCell id="7" value="&lt;font color=&quot;#ffffff&quot;&gt;Data Upload&lt;/font&gt;" style="whiteSpace=wrap;html=1;labelBackgroundColor=#18141D;strokeColor=default;fontSize=10;fontColor=#3333FF;fillColor=none;gradientColor=default;movable=0;resizable=0;rotatable=0;deletable=0;editable=0;connectable=0;" vertex="1" parent="1">
                    <mxGeometry x="296.5" y="160" width="90" height="40" as="geometry"/>
                </mxCell>
                <mxCell id="11" value="" style="whiteSpace=wrap;html=1;fontSize=10;fontColor=#FFFFFF;shadow=1;movable=0;resizable=0;rotatable=0;deletable=0;editable=0;connectable=0;" vertex="1" parent="1">
                    <mxGeometry x="60" y="280" width="440" height="220" as="geometry"/>
                </mxCell>
                <mxCell id="13" value="Network Layer - P2P" style="text;html=1;align=center;verticalAlign=middle;resizable=0;points=[];autosize=1;strokeColor=none;fillColor=none;fontSize=10;fontColor=#FFFFFF;movable=0;rotatable=0;deletable=0;editable=0;connectable=0;" vertex="1" parent="1">
                    <mxGeometry x="218.5" y="290" width="120" height="30" as="geometry"/>
                </mxCell>
                <mxCell id="135" style="edgeStyle=none;jumpSize=6;html=1;entryX=0.5;entryY=0;entryDx=0;entryDy=0;strokeColor=#FF6666;strokeWidth=1;fontSize=4;fontColor=#FFFFFF;startArrow=none;startFill=0;endArrow=classic;endFill=1;startSize=2;endSize=2;movable=0;resizable=0;rotatable=0;deletable=0;editable=0;connectable=0;" edge="1" parent="1">
                    <mxGeometry relative="1" as="geometry">
                        <mxPoint x="214.99949605838327" y="375.9686769876746" as="sourcePoint"/>
                        <mxPoint x="247.95" y="442" as="targetPoint"/>
                        <Array as="points">
                            <mxPoint x="228" y="385"/>
                            <mxPoint x="232.45" y="392"/>
                            <mxPoint x="240.45" y="414"/>
                        </Array>
                    </mxGeometry>
                </mxCell>
                <mxCell id="136" value="Intermediate Results/Gradients" style="edgeLabel;html=1;align=center;verticalAlign=middle;resizable=0;points=[];fontSize=3;fontColor=#FFFFFF;rotation=70;movable=0;rotatable=0;deletable=0;editable=0;connectable=0;" vertex="1" connectable="0" parent="135">
                    <mxGeometry x="-0.0511" y="1" relative="1" as="geometry">
                        <mxPoint y="3" as="offset"/>
                    </mxGeometry>
                </mxCell>
                <mxCell id="14" value="" style="aspect=fixed;perimeter=ellipsePerimeter;html=1;align=center;shadow=0;dashed=0;spacingTop=3;image;image=img/lib/active_directory/laptop_client.svg;fontSize=10;fontColor=#FFFFFF;movable=0;resizable=0;rotatable=0;deletable=0;editable=0;connectable=0;" vertex="1" parent="1">
                    <mxGeometry x="187" y="348.67" width="30" height="33.33" as="geometry"/>
                </mxCell>
                <mxCell id="16" value="" style="aspect=fixed;perimeter=ellipsePerimeter;html=1;align=center;shadow=0;dashed=0;spacingTop=3;image;image=img/lib/active_directory/laptop_client.svg;fontSize=10;fontColor=#FFFFFF;movable=0;resizable=0;rotatable=0;deletable=0;editable=0;connectable=0;" vertex="1" parent="1">
                    <mxGeometry x="407" y="412" width="27" height="30" as="geometry"/>
                </mxCell>
                <mxCell id="18" value="" style="aspect=fixed;perimeter=ellipsePerimeter;html=1;align=center;shadow=0;dashed=0;spacingTop=3;image;image=img/lib/active_directory/laptop_client.svg;fontSize=10;fontColor=#FFFFFF;movable=0;resizable=0;rotatable=0;deletable=0;editable=0;connectable=0;" vertex="1" parent="1">
                    <mxGeometry x="233" y="442" width="27" height="30" as="geometry"/>
                </mxCell>
                <mxCell id="131" style="edgeStyle=none;jumpSize=6;html=1;exitX=0;exitY=1;exitDx=0;exitDy=0;entryX=0.984;entryY=0.349;entryDx=0;entryDy=0;entryPerimeter=0;strokeColor=#FF6666;strokeWidth=1;fontSize=9;fontColor=#FF0000;startArrow=none;startFill=0;endArrow=classic;endFill=1;startSize=2;endSize=2;movable=0;resizable=0;rotatable=0;deletable=0;editable=0;connectable=0;" edge="1" parent="1" source="21" target="18">
                    <mxGeometry relative="1" as="geometry">
                        <Array as="points">
                            <mxPoint x="339" y="415"/>
                        </Array>
                    </mxGeometry>
                </mxCell>
                <mxCell id="132" value="&lt;font style=&quot;font-size: 4px;&quot;&gt;Intermediate Results/Gradients&lt;/font&gt;" style="edgeLabel;html=1;align=center;verticalAlign=middle;resizable=0;points=[];fontSize=4;fontColor=#FFFFFF;rotation=-33;movable=0;rotatable=0;deletable=0;editable=0;connectable=0;" vertex="1" connectable="0" parent="131">
                    <mxGeometry x="0.1592" relative="1" as="geometry">
                        <mxPoint x="51" y="-31" as="offset"/>
                    </mxGeometry>
                </mxCell>
                <mxCell id="21" value="" style="aspect=fixed;perimeter=ellipsePerimeter;html=1;align=center;shadow=0;dashed=0;spacingTop=3;image;image=img/lib/active_directory/laptop_client.svg;fontSize=10;fontColor=#FFFFFF;movable=0;resizable=0;rotatable=0;deletable=0;editable=0;connectable=0;" vertex="1" parent="1">
                    <mxGeometry x="407" y="342" width="27" height="30" as="geometry"/>
                </mxCell>
                <mxCell id="29" value="" style="endArrow=classic;startArrow=none;html=1;fontSize=10;fontColor=#FFFFFF;entryX=0.75;entryY=1;entryDx=0;entryDy=0;strokeColor=#006EAF;jumpSize=6;endSize=2;startSize=2;movable=0;resizable=0;rotatable=0;deletable=0;editable=0;connectable=0;startFill=0;fillColor=#1ba1e2;" edge="1" parent="1" source="18" target="14">
                    <mxGeometry width="50" height="50" relative="1" as="geometry">
                        <mxPoint x="217" y="422" as="sourcePoint"/>
                        <mxPoint x="267" y="372" as="targetPoint"/>
                        <Array as="points">
                            <mxPoint x="215" y="416"/>
                        </Array>
                    </mxGeometry>
                </mxCell>
                <mxCell id="31" value="" style="endArrow=classic;startArrow=classic;html=1;fontSize=10;fontColor=#FFFFFF;entryX=0.975;entryY=0.779;entryDx=0;entryDy=0;strokeColor=#FFEF08;jumpSize=6;endSize=2;startSize=2;entryPerimeter=0;exitX=0.006;exitY=0.422;exitDx=0;exitDy=0;exitPerimeter=0;movable=0;resizable=0;rotatable=0;deletable=0;editable=0;connectable=0;" edge="1" parent="1" source="16" target="14">
                    <mxGeometry width="50" height="50" relative="1" as="geometry">
                        <mxPoint x="308.2535701743305" y="435.6306323564092" as="sourcePoint"/>
                        <mxPoint x="276.99815992641646" y="372.000238357725" as="targetPoint"/>
                    </mxGeometry>
                </mxCell>
                <mxCell id="32" value="" style="endArrow=classic;startArrow=classic;html=1;fontSize=10;fontColor=#FFFFFF;strokeColor=#FFEF08;jumpSize=6;endSize=2;startSize=2;exitX=0;exitY=0.5;exitDx=0;exitDy=0;movable=0;resizable=0;rotatable=0;deletable=0;editable=0;connectable=0;fillColor=#ffff88;" edge="1" parent="1" source="21" target="14">
                    <mxGeometry width="50" height="50" relative="1" as="geometry">
                        <mxPoint x="417.16200000000003" y="434.6600000000001" as="sourcePoint"/>
                        <mxPoint x="217" y="362" as="targetPoint"/>
                    </mxGeometry>
                </mxCell>
                <mxCell id="41" value="Updated Data" style="edgeLabel;html=1;align=center;verticalAlign=middle;resizable=0;points=[];fontSize=6;fontColor=#FFFFFF;movable=0;rotatable=0;deletable=0;editable=0;connectable=0;" vertex="1" connectable="0" parent="32">
                    <mxGeometry x="-0.0771" y="-2" relative="1" as="geometry">
                        <mxPoint x="-14" y="2" as="offset"/>
                    </mxGeometry>
                </mxCell>
                <mxCell id="33" value="" style="endArrow=none;startArrow=classic;html=1;fontSize=10;fontColor=#FFFFFF;entryX=1;entryY=0;entryDx=0;entryDy=0;strokeColor=#006EAF;jumpSize=6;endSize=2;startSize=2;exitX=0;exitY=0.75;exitDx=0;exitDy=0;movable=0;resizable=0;rotatable=0;deletable=0;editable=0;connectable=0;endFill=0;fillColor=#1ba1e2;" edge="1" parent="1" source="21" target="18">
                    <mxGeometry width="50" height="50" relative="1" as="geometry">
                        <mxPoint x="434.002" y="472.00000000000006" as="sourcePoint"/>
                        <mxPoint x="243.09" y="421.97407000000004" as="targetPoint"/>
                        <Array as="points">
                            <mxPoint x="370" y="377"/>
                            <mxPoint x="347" y="390"/>
                            <mxPoint x="312" y="411"/>
                        </Array>
                    </mxGeometry>
                </mxCell>
                <mxCell id="34" value="" style="endArrow=classic;startArrow=none;html=1;fontSize=10;fontColor=#FFFFFF;entryX=0;entryY=1;entryDx=0;entryDy=0;strokeColor=#006EAF;jumpSize=6;endSize=2;startSize=2;exitX=1;exitY=0.5;exitDx=0;exitDy=0;movable=0;resizable=0;rotatable=0;deletable=0;editable=0;connectable=0;startFill=0;fillColor=#1ba1e2;" edge="1" parent="1" source="42" target="16">
                    <mxGeometry width="50" height="50" relative="1" as="geometry">
                        <mxPoint x="277" y="412" as="sourcePoint"/>
                        <mxPoint x="246.25" y="404.63407000000007" as="targetPoint"/>
                        <Array as="points">
                            <mxPoint x="322" y="441"/>
                        </Array>
                    </mxGeometry>
                </mxCell>
                <mxCell id="35" value="" style="endArrow=classic;startArrow=classic;html=1;fontSize=10;fontColor=#FFFFFF;entryX=0.5;entryY=1;entryDx=0;entryDy=0;strokeColor=#FFEF08;jumpSize=6;endSize=2;startSize=2;exitX=0.5;exitY=0;exitDx=0;exitDy=0;movable=0;resizable=0;rotatable=0;deletable=0;editable=0;connectable=0;" edge="1" parent="1" source="16" target="21">
                    <mxGeometry width="50" height="50" relative="1" as="geometry">
                        <mxPoint x="447.16200000000003" y="464.6600000000001" as="sourcePoint"/>
                        <mxPoint x="256.25" y="414.63407000000007" as="targetPoint"/>
                    </mxGeometry>
                </mxCell>
                <mxCell id="36" value="&lt;font style=&quot;font-size: 6px;&quot;&gt;Compute Node&lt;/font&gt;" style="text;html=1;strokeColor=none;fillColor=none;align=center;verticalAlign=middle;whiteSpace=wrap;rounded=0;fontSize=10;fontColor=#FFFFFF;movable=0;resizable=0;rotatable=0;deletable=0;editable=0;connectable=0;" vertex="1" parent="1">
                    <mxGeometry x="173" y="326" width="60" height="30" as="geometry"/>
                </mxCell>
                <mxCell id="139" style="edgeStyle=none;jumpSize=6;html=1;strokeColor=#FF6666;strokeWidth=1;fontSize=3;fontColor=#FFFFFF;startArrow=none;startFill=0;endArrow=classic;endFill=1;startSize=2;endSize=2;movable=0;resizable=0;rotatable=0;deletable=0;editable=0;connectable=0;" edge="1" parent="1" source="37">
                    <mxGeometry relative="1" as="geometry">
                        <mxPoint x="302" y="549" as="targetPoint"/>
                        <Array as="points">
                            <mxPoint x="279" y="499"/>
                            <mxPoint x="293" y="519"/>
                        </Array>
                    </mxGeometry>
                </mxCell>
                <mxCell id="37" value="&lt;font style=&quot;font-size: 6px;&quot;&gt;Coordinator&lt;/font&gt;" style="text;html=1;strokeColor=none;fillColor=none;align=center;verticalAlign=middle;whiteSpace=wrap;rounded=0;fontSize=10;fontColor=#FFFFFF;movable=0;resizable=0;rotatable=0;deletable=0;editable=0;connectable=0;" vertex="1" parent="1">
                    <mxGeometry x="217.5" y="462" width="60" height="30" as="geometry"/>
                </mxCell>
                <mxCell id="38" value="&lt;font style=&quot;font-size: 6px;&quot;&gt;Compute Node&lt;/font&gt;" style="text;html=1;strokeColor=none;fillColor=none;align=center;verticalAlign=middle;whiteSpace=wrap;rounded=0;fontSize=10;fontColor=#FFFFFF;movable=0;resizable=0;rotatable=0;deletable=0;editable=0;connectable=0;" vertex="1" parent="1">
                    <mxGeometry x="391.5" y="317.67" width="60" height="30" as="geometry"/>
                </mxCell>
                <mxCell id="133" style="edgeStyle=none;jumpSize=6;html=1;strokeColor=#FF6666;strokeWidth=1;fontSize=4;fontColor=#FFFFFF;startArrow=none;startFill=0;endArrow=classic;endFill=1;startSize=2;endSize=2;entryX=0.75;entryY=0;entryDx=0;entryDy=0;movable=0;resizable=0;rotatable=0;deletable=0;editable=0;connectable=0;" edge="1" parent="1" source="39" target="37">
                    <mxGeometry relative="1" as="geometry">
                        <mxPoint x="285.92982723838406" y="469.4912494860198" as="targetPoint"/>
                        <Array as="points">
                            <mxPoint x="362" y="461"/>
                            <mxPoint x="329" y="464"/>
                        </Array>
                    </mxGeometry>
                </mxCell>
                <mxCell id="39" value="&lt;font style=&quot;font-size: 6px;&quot;&gt;Compute Node&lt;/font&gt;" style="text;html=1;strokeColor=none;fillColor=none;align=center;verticalAlign=middle;whiteSpace=wrap;rounded=0;fontSize=10;fontColor=#FFFFFF;movable=0;resizable=0;rotatable=0;deletable=0;editable=0;connectable=0;" vertex="1" parent="1">
                    <mxGeometry x="392.5" y="431" width="60" height="30" as="geometry"/>
                </mxCell>
                <mxCell id="43" value="Data Transfer" style="edgeLabel;html=1;align=center;verticalAlign=middle;resizable=0;points=[];fontSize=6;fontColor=#FFFFFF;rotation=65;movable=0;rotatable=0;deletable=0;editable=0;connectable=0;" vertex="1" connectable="0" parent="1">
                    <mxGeometry x="218.50217353097332" y="412.9989276540427" as="geometry"/>
                </mxCell>
                <mxCell id="44" value="&lt;font style=&quot;font-size: 4px;&quot;&gt;Updated Data&lt;/font&gt;" style="edgeLabel;html=1;align=center;verticalAlign=middle;resizable=0;points=[];fontSize=6;fontColor=#FFFFFF;rotation=-90;movable=0;rotatable=0;deletable=0;editable=0;connectable=0;" vertex="1" connectable="0" parent="1">
                    <mxGeometry x="419.5021735309733" y="392.9989276540427" as="geometry"/>
                </mxCell>
                <mxCell id="45" value="Updated Data" style="edgeLabel;html=1;align=center;verticalAlign=middle;resizable=0;points=[];fontSize=6;fontColor=#FFFFFF;rotation=15;movable=0;rotatable=0;deletable=0;editable=0;connectable=0;" vertex="1" connectable="0" parent="1">
                    <mxGeometry x="276.5021735309733" y="389.9989276540427" as="geometry"/>
                </mxCell>
                <mxCell id="46" value="Data Transfer" style="edgeLabel;html=1;align=center;verticalAlign=middle;resizable=0;points=[];fontSize=6;fontColor=#FFFFFF;rotation=-33;movable=0;rotatable=0;deletable=0;editable=0;connectable=0;" vertex="1" connectable="0" parent="1">
                    <mxGeometry x="289.5021735309733" y="423.9989276540427" as="geometry"/>
                </mxCell>
                <mxCell id="47" value="" style="rounded=0;whiteSpace=wrap;html=1;shadow=1;fontSize=17;fontColor=#FFFFFF;movable=0;resizable=0;rotatable=0;deletable=0;editable=0;connectable=0;" vertex="1" parent="1">
                    <mxGeometry x="58.5" y="280" width="111.5" height="220" as="geometry"/>
                </mxCell>
                <mxCell id="51" value="&lt;font style=&quot;font-size: 13px;&quot;&gt;&lt;b&gt;Data Transfer:&lt;/b&gt;&lt;/font&gt;" style="rounded=0;whiteSpace=wrap;html=1;shadow=1;fontSize=4;fontColor=#FFFFFF;movable=0;resizable=0;rotatable=0;deletable=0;editable=0;connectable=0;" vertex="1" parent="1">
                    <mxGeometry x="58.5" y="280" width="111.5" height="30" as="geometry"/>
                </mxCell>
                <mxCell id="52" value="&lt;ul&gt;&lt;li&gt;Weight&lt;/li&gt;&lt;/ul&gt;&lt;div style=&quot;left: 212px; bottom: 0px; right: 240px; height: 36px;&quot; class=&quot;geTabContainer geTabItem&quot;&gt;&lt;div style=&quot;width: 30px;&quot; title=&quot;Pages&quot; class=&quot;geTab geControlTab&quot;&gt;&lt;div style=&quot;background-image: url(&amp;quot;data:image/svg+xml;base64,PHN2ZyB4bWxucz0iaHR0cDovL3d3dy53My5vcmcvMjAwMC9zdmciIGhlaWdodD0iMThweCIgdmlld0JveD0iMCAwIDI0IDI0IiB3aWR0aD0iMThweCIgZmlsbD0iIzAwMDAwMCI+PHBhdGggZD0iTTAgMGgyNHYyNEgwVjB6IiBmaWxsPSJub25lIi8+PHBhdGggZD0iTTEyIDhjMS4xIDAgMi0uOSAyLTJzLS45LTItMi0yLTIgLjktMiAyIC45IDIgMiAyem0wIDJjLTEuMSAwLTIgLjktMiAycy45IDIgMiAyIDItLjkgMi0yLS45LTItMi0yem0wIDZjLTEuMSAwLTIgLjktMiAycy45IDIgMiAyIDItLjkgMi0yLS45LTItMi0yeiIvPjwvc3ZnPg==&amp;quot;); background-repeat: no-repeat; background-position: center center; background-size: 24px; position: relative; opacity: 0.5; width: 100%; height: 100%;&quot; class=&quot;geAdaptiveAsset&quot;&gt;&lt;/div&gt;&lt;/div&gt;&lt;div class=&quot;geTabScroller&quot;&gt;&lt;div draggable=&quot;true&quot; title=&quot;Page-1 (niPRL1f2Gw76KjAHTD3v) [1]&quot; class=&quot;geTab gePageTab geActivePage&quot;&gt;&lt;span&gt;Page-1&lt;/span&gt;&lt;div style=&quot;background-image: url(&amp;quot;data:image/svg+xml;base64,PCFET0NUWVBFIHN2ZyBQVUJMSUMgIi0vL1czQy8vRFREIFNWRyAxLjEvL0VOIiAiaHR0cDovL3d3dy53My5vcmcvR3JhcGhpY3MvU1ZHLzEuMS9EVEQvc3ZnMTEuZHRkIj48c3ZnIHhtbG5zPSJodHRwOi8vd3d3LnczLm9yZy8yMDAwL3N2ZyIgeG1sbnM6eGxpbms9Imh0dHA6Ly93d3cudzMub3JnLzE5OTkveGxpbmsiIHdpZHRoPSIxNHB4IiBoZWlnaHQ9IjEwcHgiIHZlcnNpb249IjEuMSI+PHBhdGggZD0iTSAzIDcgTCA3IDMgTCAxMSA3IiBzdHJva2U9IiM3MDcwNzAiIHN0cm9rZS13aWR0aD0iMiIgZmlsbD0ibm9uZSIvPjwvc3ZnPg==&amp;quot;); background-position: center center; background-repeat: no-repeat; background-size: 10px;&quot; class=&quot;geTabMenuButton&quot;&gt;&lt;/div&gt;&lt;/div&gt;&lt;/div&gt;&lt;div style=&quot;width: 30px;&quot; title=&quot;Insert Page&quot; class=&quot;geTab geControlTab&quot;&gt;&lt;div style=&quot;background-image: url(&amp;quot;data:image/svg+xml;base64,PHN2ZyB4bWxucz0iaHR0cDovL3d3dy53My5vcmcvMjAwMC9zdmciIHdpZHRoPSIyNCIgaGVpZ2h0PSIyNCIgdmlld0JveD0iMCAwIDI0IDI0Ij48cGF0aCBkPSJNMTkgMTNoLTZ2NmgtMnYtNkg1di0yaDZWNWgydjZoNnYyeiIvPjwvc3ZnPg==&amp;quot;); background-repeat: no-repeat; background-position: center center; background-size: 24px; position: relative; opacity: 0.5; width: 100%; height: 100%;&quot; class=&quot;geAdaptiveAsset&quot;&gt;&lt;/div&gt;&lt;/div&gt;&lt;div style=&quot;width: 30px; opacity: 0; transition: 0.2s linear;&quot; class=&quot;geTab geControlTab&quot;&gt;&lt;div style=&quot;background-image: url(&amp;quot;data:image/svg+xml;base64,PHN2ZyB4bWxucz0iaHR0cDovL3d3dy53My5vcmcvMjAwMC9zdmciIGhlaWdodD0iNDgiIHdpZHRoPSI0OCI+PHBhdGggZD0iTTI4LjA1IDM1LjMgMTYuNyAyMy45NSAyOC4wNSAxMi42bDEuNiAxLjY1LTkuNyA5LjcgOS43IDkuNzVaIi8+PC9zdmc+&amp;quot;); background-repeat: no-repeat; background-position: center center; background-size: 24px; position: relative; opacity: 0.5; width: 100%; height: 100%;&quot; class=&quot;geAdaptiveAsset&quot;&gt;&lt;/div&gt;&lt;/div&gt;&lt;div style=&quot;width: 30px; opacity: 0; transition: 0.2s linear;&quot; class=&quot;geTab geControlTab&quot;&gt;&lt;div style=&quot;background-image: url(&amp;quot;data:image/svg+xml;base64,PHN2ZyB4bWxucz0iaHR0cDovL3d3dy53My5vcmcvMjAwMC9zdmciIGhlaWdodD0iNDgiIHdpZHRoPSI0OCI+PHBhdGggZD0ibTE4Ljc1IDM1LjMtMS42LTEuNiA5LjctOS43NS05LjctOS43IDEuNi0xLjY1TDMwLjEgMjMuOTVaIi8+PC9zdmc+&amp;quot;); background-repeat: no-repeat; background-position: center center; background-size: 24px; position: relative; opacity: 0.5; width: 100%; height: 100%;&quot; class=&quot;geAdaptiveAsset&quot;&gt;&lt;/div&gt;&lt;/div&gt;&lt;/div&gt;&lt;div style=&quot;left: 0px; right: 0px; top: 30px; height: 38px;&quot; class=&quot;geToolbarContainer&quot;&gt;&lt;div class=&quot;geToolbar&quot;&gt;&lt;a style=&quot;position: relative; white-space: nowrap; overflow: hidden; padding-right: 18px;&quot; title=&quot;Style&quot; class=&quot;geLabel&quot;&gt;Style&lt;img style=&quot;position: absolute; right: 1px; top: 5px;&quot; src=&quot;data:image/gif;base64,R0lGODlhDQANAIABAHt7e////yH/C1hNUCBEYXRhWE1QPD94cGFja2V0IGJlZ2luPSLvu78iIGlkPSJXNU0wTXBDZWhpSHpyZVN6TlRjemtjOWQiPz4gPHg6eG1wbWV0YSB4bWxuczp4PSJhZG9iZTpuczptZXRhLyIgeDp4bXB0az0iQWRvYmUgWE1QIENvcmUgNS4wLWMwNjAgNjEuMTM0Nzc3LCAyMDEwLzAyLzEyLTE3OjMyOjAwICAgICAgICAiPiA8cmRmOlJERiB4bWxuczpyZGY9Imh0dHA6Ly93d3cudzMub3JnLzE5OTkvMDIvMjItcmRmLXN5bnRheC1ucyMiPiA8cmRmOkRlc2NyaXB0aW9uIHJkZjphYm91dD0iIiB4bWxuczp4bXA9Imh0dHA6Ly9ucy5hZG9iZS5jb20veGFwLzEuMC8iIHhtbG5zOnhtcE1NPSJodHRwOi8vbnMuYWRvYmUuY29tL3hhcC8xLjAvbW0vIiB4bWxuczpzdFJlZj0iaHR0cDovL25zLmFkb2JlLmNvbS94YXAvMS4wL3NUeXBlL1Jlc291cmNlUmVmIyIgeG1wOkNyZWF0b3JUb29sPSJBZG9iZSBQaG90b3Nob3AgQ1M1IE1hY2ludG9zaCIgeG1wTU06SW5zdGFuY2VJRD0ieG1wLmlpZDpCREM1NkJFMjE0NEMxMUU1ODk1Q0M5MjQ0MTA4QjNDMSIgeG1wTU06RG9jdW1lbnRJRD0ieG1wLmRpZDpCREM1NkJFMzE0NEMxMUU1ODk1Q0M5MjQ0MTA4QjNDMSI+IDx4bXBNTTpEZXJpdmVkRnJvbSBzdFJlZjppbnN0YW5jZUlEPSJ4bXAuaWlkOkQzOUMzMjZCMTQ0QjExRTU4OTVDQzkyNDQxMDhCM0MxIiBzdFJlZjpkb2N1bWVudElEPSJ4bXAuZGlkOkQzOUMzMjZDMTQ0QjExRTU4OTVDQzkyNDQxMDhCM0MxIi8+IDwvcmRmOkRlc2NyaXB0aW9uPiA8L3JkZjpSREY+IDwveDp4bXBtZXRhPiA8P3hwYWNrZXQgZW5kPSJyIj8+Af/+/fz7+vn49/b19PPy8fDv7u3s6+rp6Ofm5eTj4uHg397d3Nva2djX1tXU09LR0M/OzczLysnIx8bFxMPCwcC/vr28u7q5uLe2tbSzsrGwr66trKuqqainpqWko6KhoJ+enZybmpmYl5aVlJOSkZCPjo2Mi4qJiIeGhYSDgoGAf359fHt6eXh3dnV0c3JxcG9ubWxramloZ2ZlZGNiYWBfXl1cW1pZWFdWVVRTUlFQT05NTEtKSUhHRkVEQ0JBQD8+PTw7Ojk4NzY1NDMyMTAvLi0sKyopKCcmJSQjIiEgHx4dHBsaGRgXFhUUExIREA8ODQwLCgkIBwYFBAMCAQAAIfkEAQAAAQAsAAAAAA0ADQAAAhGMj6nL3QAjVHIu6azbvPtWAAA7&quot; valign=&quot;middle&quot; border=&quot;0&quot;&gt;&lt;/a&gt;&lt;div class=&quot;geSeparator&quot;&gt;&lt;/div&gt;&lt;a style=&quot;position: relative; white-space: nowrap; overflow: hidden; width: 68px; padding-right: 18px;&quot; title=&quot;Font Family&quot; class=&quot;geLabel&quot;&gt;&lt;div style=&quot;display: inline-block; overflow: hidden; text-overflow: ellipsis; max-width: 66px;&quot;&gt;Helvetica&lt;/div&gt;&lt;img style=&quot;position: absolute; right: 4px; top: 6px;&quot; src=&quot;data:image/gif;base64,R0lGODlhDQANAIABAHt7e////yH/C1hNUCBEYXRhWE1QPD94cGFja2V0IGJlZ2luPSLvu78iIGlkPSJXNU0wTXBDZWhpSHpyZVN6TlRjemtjOWQiPz4gPHg6eG1wbWV0YSB4bWxuczp4PSJhZG9iZTpuczptZXRhLyIgeDp4bXB0az0iQWRvYmUgWE1QIENvcmUgNS4wLWMwNjAgNjEuMTM0Nzc3LCAyMDEwLzAyLzEyLTE3OjMyOjAwICAgICAgICAiPiA8cmRmOlJERiB4bWxuczpyZGY9Imh0dHA6Ly93d3cudzMub3JnLzE5OTkvMDIvMjItcmRmLXN5bnRheC1ucyMiPiA8cmRmOkRlc2NyaXB0aW9uIHJkZjphYm91dD0iIiB4bWxuczp4bXA9Imh0dHA6Ly9ucy5hZG9iZS5jb20veGFwLzEuMC8iIHhtbG5zOnhtcE1NPSJodHRwOi8vbnMuYWRvYmUuY29tL3hhcC8xLjAvbW0vIiB4bWxuczpzdFJlZj0iaHR0cDovL25zLmFkb2JlLmNvbS94YXAvMS4wL3NUeXBlL1Jlc291cmNlUmVmIyIgeG1wOkNyZWF0b3JUb29sPSJBZG9iZSBQaG90b3Nob3AgQ1M1IE1hY2ludG9zaCIgeG1wTU06SW5zdGFuY2VJRD0ieG1wLmlpZDpCREM1NkJFMjE0NEMxMUU1ODk1Q0M5MjQ0MTA4QjNDMSIgeG1wTU06RG9jdW1lbnRJRD0ieG1wLmRpZDpCREM1NkJFMzE0NEMxMUU1ODk1Q0M5MjQ0MTA4QjNDMSI+IDx4bXBNTTpEZXJpdmVkRnJvbSBzdFJlZjppbnN0YW5jZUlEPSJ4bXAuaWlkOkQzOUMzMjZCMTQ0QjExRTU4OTVDQzkyNDQxMDhCM0MxIiBzdFJlZjpkb2N1bWVudElEPSJ4bXAuZGlkOkQzOUMzMjZDMTQ0QjExRTU4OTVDQzkyNDQxMDhCM0MxIi8+IDwvcmRmOkRlc2NyaXB0aW9uPiA8L3JkZjpSREY+IDwveDp4bXBtZXRhPiA8P3hwYWNrZXQgZW5kPSJyIj8+Af/+/fz7+vn49/b19PPy8fDv7u3s6+rp6Ofm5eTj4uHg397d3Nva2djX1tXU09LR0M/OzczLysnIx8bFxMPCwcC/vr28u7q5uLe2tbSzsrGwr66trKuqqainpqWko6KhoJ+enZybmpmYl5aVlJOSkZCPjo2Mi4qJiIeGhYSDgoGAf359fHt6eXh3dnV0c3JxcG9ubWxramloZ2ZlZGNiYWBfXl1cW1pZWFdWVVRTUlFQT05NTEtKSUhHRkVEQ0JBQD8+PTw7Ojk4NzY1NDMyMTAvLi0sKyopKCcmJSQjIiEgHx4dHBsaGRgXFhUUExIREA8ODQwLCgkIBwYFBAMCAQAAIfkEAQAAAQAsAAAAAA0ADQAAAhGMj6nL3QAjVHIu6azbvPtWAAA7&quot; valign=&quot;middle&quot; border=&quot;0&quot;&gt;&lt;/a&gt;&lt;div class=&quot;geSeparator&quot;&gt;&lt;/div&gt;&lt;a style=&quot;position: relative; white-space: nowrap; overflow: hidden; width: 24px; padding-right: 18px;&quot; title=&quot;Font Size&quot; class=&quot;geLabel&quot;&gt;&lt;div style=&quot;display: inline-block; overflow: hidden; text-overflow: ellipsis; max-width: 24px;&quot;&gt;13&lt;/div&gt;&lt;img style=&quot;position: absolute; right: 4px; top: 6px;&quot; src=&quot;data:image/gif;base64,R0lGODlhDQANAIABAHt7e////yH/C1hNUCBEYXRhWE1QPD94cGFja2V0IGJlZ2luPSLvu78iIGlkPSJXNU0wTXBDZWhpSHpyZVN6TlRjemtjOWQiPz4gPHg6eG1wbWV0YSB4bWxuczp4PSJhZG9iZTpuczptZXRhLyIgeDp4bXB0az0iQWRvYmUgWE1QIENvcmUgNS4wLWMwNjAgNjEuMTM0Nzc3LCAyMDEwLzAyLzEyLTE3OjMyOjAwICAgICAgICAiPiA8cmRmOlJERiB4bWxuczpyZGY9Imh0dHA6Ly93d3cudzMub3JnLzE5OTkvMDIvMjItcmRmLXN5bnRheC1ucyMiPiA8cmRmOkRlc2NyaXB0aW9uIHJkZjphYm91dD0iIiB4bWxuczp4bXA9Imh0dHA6Ly9ucy5hZG9iZS5jb20veGFwLzEuMC8iIHhtbG5zOnhtcE1NPSJodHRwOi8vbnMuYWRvYmUuY29tL3hhcC8xLjAvbW0vIiB4bWxuczpzdFJlZj0iaHR0cDovL25zLmFkb2JlLmNvbS94YXAvMS4wL3NUeXBlL1Jlc291cmNlUmVmIyIgeG1wOkNyZWF0b3JUb29sPSJBZG9iZSBQaG90b3Nob3AgQ1M1IE1hY2ludG9zaCIgeG1wTU06SW5zdGFuY2VJRD0ieG1wLmlpZDpCREM1NkJFMjE0NEMxMUU1ODk1Q0M5MjQ0MTA4QjNDMSIgeG1wTU06RG9jdW1lbnRJRD0ieG1wLmRpZDpCREM1NkJFMzE0NEMxMUU1ODk1Q0M5MjQ0MTA4QjNDMSI+IDx4bXBNTTpEZXJpdmVkRnJvbSBzdFJlZjppbnN0YW5jZUlEPSJ4bXAuaWlkOkQzOUMzMjZCMTQ0QjExRTU4OTVDQzkyNDQxMDhCM0MxIiBzdFJlZjpkb2N1bWVudElEPSJ4bXAuZGlkOkQzOUMzMjZDMTQ0QjExRTU4OTVDQzkyNDQxMDhCM0MxIi8+IDwvcmRmOkRlc2NyaXB0aW9uPiA8L3JkZjpSREY+IDwveDp4bXBtZXRhPiA8P3hwYWNrZXQgZW5kPSJyIj8+Af/+/fz7+vn49/b19PPy8fDv7u3s6+rp6Ofm5eTj4uHg397d3Nva2djX1tXU09LR0M/OzczLysnIx8bFxMPCwcC/vr28u7q5uLe2tbSzsrGwr66trKuqqainpqWko6KhoJ+enZybmpmYl5aVlJOSkZCPjo2Mi4qJiIeGhYSDgoGAf359fHt6eXh3dnV0c3JxcG9ubWxramloZ2ZlZGNiYWBfXl1cW1pZWFdWVVRTUlFQT05NTEtKSUhHRkVEQ0JBQD8+PTw7Ojk4NzY1NDMyMTAvLi0sKyopKCcmJSQjIiEgHx4dHBsaGRgXFhUUExIREA8ODQwLCgkIBwYFBAMCAQAAIfkEAQAAAQAsAAAAAA0ADQAAAhGMj6nL3QAjVHIu6azbvPtWAAA7&quot; valign=&quot;middle&quot; border=&quot;0&quot;&gt;&lt;/a&gt;&lt;div class=&quot;geSeparator&quot;&gt;&lt;/div&gt;&lt;a title=&quot;Undo (Ctrl+Z)&quot; class=&quot;geButton&quot;&gt;&lt;div class=&quot;geSprite geSprite-undo&quot;&gt;&lt;/div&gt;&lt;/a&gt;&lt;a title=&quot;Redo (Ctrl+Y)&quot; class=&quot;geButton&quot;&gt;&lt;div class=&quot;geSprite geSprite-redo&quot;&gt;&lt;/div&gt;&lt;/a&gt;&lt;div class=&quot;geSeparator&quot;&gt;&lt;/div&gt;&lt;a title=&quot;Bold (Ctrl+B)&quot; class=&quot;geButton&quot;&gt;&lt;div class=&quot;geSprite geSprite-bold&quot;&gt;&lt;/div&gt;&lt;/a&gt;&lt;a title=&quot;Italic (Ctrl+I)&quot; class=&quot;geButton&quot;&gt;&lt;div class=&quot;geSprite geSprite-italic&quot;&gt;&lt;/div&gt;&lt;/a&gt;&lt;a title=&quot;Underline (Ctrl+U)&quot; class=&quot;geButton&quot;&gt;&lt;div class=&quot;geSprite geSprite-underline&quot;&gt;&lt;/div&gt;&lt;/a&gt;&lt;a style=&quot;position: relative; white-space: nowrap; overflow: hidden; width: 30px;&quot; title=&quot;Align&quot; class=&quot;geButton&quot;&gt;&lt;div style=&quot;margin-left: -2px;&quot; class=&quot;geSprite geSprite-left&quot;&gt;&lt;/div&gt;&lt;img style=&quot;position: absolute; right: 4px; top: 5px; left: 22px;&quot; src=&quot;data:image/gif;base64,R0lGODlhDQANAIABAHt7e////yH/C1hNUCBEYXRhWE1QPD94cGFja2V0IGJlZ2luPSLvu78iIGlkPSJXNU0wTXBDZWhpSHpyZVN6TlRjemtjOWQiPz4gPHg6eG1wbWV0YSB4bWxuczp4PSJhZG9iZTpuczptZXRhLyIgeDp4bXB0az0iQWRvYmUgWE1QIENvcmUgNS4wLWMwNjAgNjEuMTM0Nzc3LCAyMDEwLzAyLzEyLTE3OjMyOjAwICAgICAgICAiPiA8cmRmOlJERiB4bWxuczpyZGY9Imh0dHA6Ly93d3cudzMub3JnLzE5OTkvMDIvMjItcmRmLXN5bnRheC1ucyMiPiA8cmRmOkRlc2NyaXB0aW9uIHJkZjphYm91dD0iIiB4bWxuczp4bXA9Imh0dHA6Ly9ucy5hZG9iZS5jb20veGFwLzEuMC8iIHhtbG5zOnhtcE1NPSJodHRwOi8vbnMuYWRvYmUuY29tL3hhcC8xLjAvbW0vIiB4bWxuczpzdFJlZj0iaHR0cDovL25zLmFkb2JlLmNvbS94YXAvMS4wL3NUeXBlL1Jlc291cmNlUmVmIyIgeG1wOkNyZWF0b3JUb29sPSJBZG9iZSBQaG90b3Nob3AgQ1M1IE1hY2ludG9zaCIgeG1wTU06SW5zdGFuY2VJRD0ieG1wLmlpZDpCREM1NkJFMjE0NEMxMUU1ODk1Q0M5MjQ0MTA4QjNDMSIgeG1wTU06RG9jdW1lbnRJRD0ieG1wLmRpZDpCREM1NkJFMzE0NEMxMUU1ODk1Q0M5MjQ0MTA4QjNDMSI+IDx4bXBNTTpEZXJpdmVkRnJvbSBzdFJlZjppbnN0YW5jZUlEPSJ4bXAuaWlkOkQzOUMzMjZCMTQ0QjExRTU4OTVDQzkyNDQxMDhCM0MxIiBzdFJlZjpkb2N1bWVudElEPSJ4bXAuZGlkOkQzOUMzMjZDMTQ0QjExRTU4OTVDQzkyNDQxMDhCM0MxIi8+IDwvcmRmOkRlc2NyaXB0aW9uPiA8L3JkZjpSREY+IDwveDp4bXBtZXRhPiA8P3hwYWNrZXQgZW5kPSJyIj8+Af/+/fz7+vn49/b19PPy8fDv7u3s6+rp6Ofm5eTj4uHg397d3Nva2djX1tXU09LR0M/OzczLysnIx8bFxMPCwcC/vr28u7q5uLe2tbSzsrGwr66trKuqqainpqWko6KhoJ+enZybmpmYl5aVlJOSkZCPjo2Mi4qJiIeGhYSDgoGAf359fHt6eXh3dnV0c3JxcG9ubWxramloZ2ZlZGNiYWBfXl1cW1pZWFdWVVRTUlFQT05NTEtKSUhHRkVEQ0JBQD8+PTw7Ojk4NzY1NDMyMTAvLi0sKyopKCcmJSQjIiEgHx4dHBsaGRgXFhUUExIREA8ODQwLCgkIBwYFBAMCAQAAIfkEAQAAAQAsAAAAAA0ADQAAAhGMj6nL3QAjVHIu6azbvPtWAAA7&quot; valign=&quot;middle&quot; border=&quot;0&quot;&gt;&lt;/a&gt;&lt;a style=&quot;position: relative; white-space: nowrap; overflow: hidden; width: 30px;&quot; title=&quot;Format&quot; class=&quot;geButton&quot;&gt;&lt;div style=&quot;margin-left: -2px;&quot; class=&quot;geSprite geSprite-dots&quot;&gt;&lt;/div&gt;&lt;img style=&quot;position: absolute; right: 4px; top: 5px; left: 22px;&quot; src=&quot;data:image/gif;base64,R0lGODlhDQANAIABAHt7e////yH/C1hNUCBEYXRhWE1QPD94cGFja2V0IGJlZ2luPSLvu78iIGlkPSJXNU0wTXBDZWhpSHpyZVN6TlRjemtjOWQiPz4gPHg6eG1wbWV0YSB4bWxuczp4PSJhZG9iZTpuczptZXRhLyIgeDp4bXB0az0iQWRvYmUgWE1QIENvcmUgNS4wLWMwNjAgNjEuMTM0Nzc3LCAyMDEwLzAyLzEyLTE3OjMyOjAwICAgICAgICAiPiA8cmRmOlJERiB4bWxuczpyZGY9Imh0dHA6Ly93d3cudzMub3JnLzE5OTkvMDIvMjItcmRmLXN5bnRheC1ucyMiPiA8cmRmOkRlc2NyaXB0aW9uIHJkZjphYm91dD0iIiB4bWxuczp4bXA9Imh0dHA6Ly9ucy5hZG9iZS5jb20veGFwLzEuMC8iIHhtbG5zOnhtcE1NPSJodHRwOi8vbnMuYWRvYmUuY29tL3hhcC8xLjAvbW0vIiB4bWxuczpzdFJlZj0iaHR0cDovL25zLmFkb2JlLmNvbS94YXAvMS4wL3NUeXBlL1Jlc291cmNlUmVmIyIgeG1wOkNyZWF0b3JUb29sPSJBZG9iZSBQaG90b3Nob3AgQ1M1IE1hY2ludG9zaCIgeG1wTU06SW5zdGFuY2VJRD0ieG1wLmlpZDpCREM1NkJFMjE0NEMxMUU1ODk1Q0M5MjQ0MTA4QjNDMSIgeG1wTU06RG9jdW1lbnRJRD0ieG1wLmRpZDpCREM1NkJFMzE0NEMxMUU1ODk1Q0M5MjQ0MTA4QjNDMSI+IDx4bXBNTTpEZXJpdmVkRnJvbSBzdFJlZjppbnN0YW5jZUlEPSJ4bXAuaWlkOkQzOUMzMjZCMTQ0QjExRTU4OTVDQzkyNDQxMDhCM0MxIiBzdFJlZjpkb2N1bWVudElEPSJ4bXAuZGlkOkQzOUMzMjZDMTQ0QjExRTU4OTVDQzkyNDQxMDhCM0MxIi8+IDwvcmRmOkRlc2NyaXB0aW9uPiA8L3JkZjpSREY+IDwveDp4bXBtZXRhPiA8P3hwYWNrZXQgZW5kPSJyIj8+Af/+/fz7+vn49/b19PPy8fDv7u3s6+rp6Ofm5eTj4uHg397d3Nva2djX1tXU09LR0M/OzczLysnIx8bFxMPCwcC/vr28u7q5uLe2tbSzsrGwr66trKuqqainpqWko6KhoJ+enZybmpmYl5aVlJOSkZCPjo2Mi4qJiIeGhYSDgoGAf359fHt6eXh3dnV0c3JxcG9ubWxramloZ2ZlZGNiYWBfXl1cW1pZWFdWVVRTUlFQT05NTEtKSUhHRkVEQ0JBQD8+PTw7Ojk4NzY1NDMyMTAvLi0sKyopKCcmJSQjIiEgHx4dHBsaGRgXFhUUExIREA8ODQwLCgkIBwYFBAMCAQAAIfkEAQAAAQAsAAAAAA0ADQAAAhGMj6nL3QAjVHIu6azbvPtWAAA7&quot; valign=&quot;middle&quot; border=&quot;0&quot;&gt;&lt;/a&gt;&lt;div class=&quot;geSeparator&quot;&gt;&lt;/div&gt;&lt;a title=&quot;HTML&quot; class=&quot;geButton&quot;&gt;&lt;div class=&quot;geSprite geIcon geSprite geSprite-code&quot;&gt;&lt;/div&gt;&lt;/a&gt;&lt;div class=&quot;geSeparator&quot;&gt;&lt;/div&gt;&lt;a style=&quot;white-space: nowrap; overflow: hidden; position: relative; width: 30px;&quot; title=&quot;Insert&quot; class=&quot;geLabel&quot;&gt;&lt;div style=&quot;margin-left: -4px; margin-top: -3px;&quot; class=&quot;geSprite geSprite-plus&quot;&gt;&lt;/div&gt;&lt;img style=&quot;position: absolute; right: 4px; top: 5px; left: 24px;&quot; src=&quot;data:image/gif;base64,R0lGODlhDQANAIABAHt7e////yH/C1hNUCBEYXRhWE1QPD94cGFja2V0IGJlZ2luPSLvu78iIGlkPSJXNU0wTXBDZWhpSHpyZVN6TlRjemtjOWQiPz4gPHg6eG1wbWV0YSB4bWxuczp4PSJhZG9iZTpuczptZXRhLyIgeDp4bXB0az0iQWRvYmUgWE1QIENvcmUgNS4wLWMwNjAgNjEuMTM0Nzc3LCAyMDEwLzAyLzEyLTE3OjMyOjAwICAgICAgICAiPiA8cmRmOlJERiB4bWxuczpyZGY9Imh0dHA6Ly93d3cudzMub3JnLzE5OTkvMDIvMjItcmRmLXN5bnRheC1ucyMiPiA8cmRmOkRlc2NyaXB0aW9uIHJkZjphYm91dD0iIiB4bWxuczp4bXA9Imh0dHA6Ly9ucy5hZG9iZS5jb20veGFwLzEuMC8iIHhtbG5zOnhtcE1NPSJodHRwOi8vbnMuYWRvYmUuY29tL3hhcC8xLjAvbW0vIiB4bWxuczpzdFJlZj0iaHR0cDovL25zLmFkb2JlLmNvbS94YXAvMS4wL3NUeXBlL1Jlc291cmNlUmVmIyIgeG1wOkNyZWF0b3JUb29sPSJBZG9iZSBQaG90b3Nob3AgQ1M1IE1hY2ludG9zaCIgeG1wTU06SW5zdGFuY2VJRD0ieG1wLmlpZDpCREM1NkJFMjE0NEMxMUU1ODk1Q0M5MjQ0MTA4QjNDMSIgeG1wTU06RG9jdW1lbnRJRD0ieG1wLmRpZDpCREM1NkJFMzE0NEMxMUU1ODk1Q0M5MjQ0MTA4QjNDMSI+IDx4bXBNTTpEZXJpdmVkRnJvbSBzdFJlZjppbnN0YW5jZUlEPSJ4bXAuaWlkOkQzOUMzMjZCMTQ0QjExRTU4OTVDQzkyNDQxMDhCM0MxIiBzdFJlZjpkb2N1bWVudElEPSJ4bXAuZGlkOkQzOUMzMjZDMTQ0QjExRTU4OTVDQzkyNDQxMDhCM0MxIi8+IDwvcmRmOkRlc2NyaXB0aW9uPiA8L3JkZjpSREY+IDwveDp4bXBtZXRhPiA8P3hwYWNrZXQgZW5kPSJyIj8+Af/+/fz7+vn49/b19PPy8fDv7u3s6+rp6Ofm5eTj4uHg397d3Nva2djX1tXU09LR0M/OzczLysnIx8bFxMPCwcC/vr28u7q5uLe2tbSzsrGwr66trKuqqainpqWko6KhoJ+enZybmpmYl5aVlJOSkZCPjo2Mi4qJiIeGhYSDgoGAf359fHt6eXh3dnV0c3JxcG9ubWxramloZ2ZlZGNiYWBfXl1cW1pZWFdWVVRTUlFQT05NTEtKSUhHRkVEQ0JBQD8+PTw7Ojk4NzY1NDMyMTAvLi0sKyopKCcmJSQjIiEgHx4dHBsaGRgXFhUUExIREA8ODQwLCgkIBwYFBAMCAQAAIfkEAQAAAQAsAAAAAA0ADQAAAhGMj6nL3QAjVHIu6azbvPtWAAA7&quot; valign=&quot;middle&quot; border=&quot;0&quot;&gt;&lt;/a&gt;&lt;div class=&quot;geSeparator&quot;&gt;&lt;/div&gt;&lt;a style=&quot;position: relative; white-space: nowrap; overflow: hidden; width: 30px;&quot; title=&quot;Table&quot; class=&quot;geButton&quot;&gt;&lt;div style=&quot;margin-left: -2px;&quot; class=&quot;geSprite geSprite-table&quot;&gt;&lt;/div&gt;&lt;img style=&quot;position: absolute; right: 4px; top: 5px; left: 22px;&quot; src=&quot;data:image/gif;base64,R0lGODlhDQANAIABAHt7e////yH/C1hNUCBEYXRhWE1QPD94cGFja2V0IGJlZ2luPSLvu78iIGlkPSJXNU0wTXBDZWhpSHpyZVN6TlRjemtjOWQiPz4gPHg6eG1wbWV0YSB4bWxuczp4PSJhZG9iZTpuczptZXRhLyIgeDp4bXB0az0iQWRvYmUgWE1QIENvcmUgNS4wLWMwNjAgNjEuMTM0Nzc3LCAyMDEwLzAyLzEyLTE3OjMyOjAwICAgICAgICAiPiA8cmRmOlJERiB4bWxuczpyZGY9Imh0dHA6Ly93d3cudzMub3JnLzE5OTkvMDIvMjItcmRmLXN5bnRheC1ucyMiPiA8cmRmOkRlc2NyaXB0aW9uIHJkZjphYm91dD0iIiB4bWxuczp4bXA9Imh0dHA6Ly9ucy5hZG9iZS5jb20veGFwLzEuMC8iIHhtbG5zOnhtcE1NPSJodHRwOi8vbnMuYWRvYmUuY29tL3hhcC8xLjAvbW0vIiB4bWxuczpzdFJlZj0iaHR0cDovL25zLmFkb2JlLmNvbS94YXAvMS4wL3NUeXBlL1Jlc291cmNlUmVmIyIgeG1wOkNyZWF0b3JUb29sPSJBZG9iZSBQaG90b3Nob3AgQ1M1IE1hY2ludG9zaCIgeG1wTU06SW5zdGFuY2VJRD0ieG1wLmlpZDpCREM1NkJFMjE0NEMxMUU1ODk1Q0M5MjQ0MTA4QjNDMSIgeG1wTU06RG9jdW1lbnRJRD0ieG1wLmRpZDpCREM1NkJFMzE0NEMxMUU1ODk1Q0M5MjQ0MTA4QjNDMSI+IDx4bXBNTTpEZXJpdmVkRnJvbSBzdFJlZjppbnN0YW5jZUlEPSJ4bXAuaWlkOkQzOUMzMjZCMTQ0QjExRTU4OTVDQzkyNDQxMDhCM0MxIiBzdFJlZjpkb2N1bWVudElEPSJ4bXAuZGlkOkQzOUMzMjZDMTQ0QjExRTU4OTVDQzkyNDQxMDhCM0MxIi8+IDwvcmRmOkRlc2NyaXB0aW9uPiA8L3JkZjpSREY+IDwveDp4bXBtZXRhPiA8P3hwYWNrZXQgZW5kPSJyIj8+Af/+/fz7+vn49/b19PPy8fDv7u3s6+rp6Ofm5eTj4uHg397d3Nva2djX1tXU09LR0M/OzczLysnIx8bFxMPCwcC/vr28u7q5uLe2tbSzsrGwr66trKuqqainpqWko6KhoJ+enZybmpmYl5aVlJOSkZCPjo2Mi4qJiIeGhYSDgoGAf359fHt6eXh3dnV0c3JxcG9ubWxramloZ2ZlZGNiYWBfXl1cW1pZWFdWVVRTUlFQT05NTEtKSUhHRkVEQ0JBQD8+PTw7Ojk4NzY1NDMyMTAvLi0sKyopKCcmJSQjIiEgHx4dHBsaGRgXFhUUExIREA8ODQwLCgkIBwYFBAMCAQAAIfkEAQAAAQAsAAAAAA0ADQAAAhGMj6nL3QAjVHIu6azbvPtWAAA7&quot; valign=&quot;middle&quot; border=&quot;0&quot;&gt;&lt;/a&gt;&lt;/div&gt;&lt;a style=&quot;position: absolute; display: inline-block; top: 6px; right: 10px; padding: 2px; font-size: 14px; width: 16px; height: 16px; background-position: 50% 50%; background-size: 16px 16px; background-repeat: no-repeat; background-image: url(&amp;quot;data:image/png;base64,iVBORw0KGgoAAAANSUhEUgAAABAAAAAQCAMAAAAoLQ9TAAAAGXRFWHRTb2Z0d2FyZQBBZG9iZSBJbWFnZVJlYWR5ccllPAAAAyJpVFh0WE1MOmNvbS5hZG9iZS54bXAAAAAAADw/eHBhY2tldCBiZWdpbj0i77u/IiBpZD0iVzVNME1wQ2VoaUh6cmVTek5UY3prYzlkIj8+IDx4OnhtcG1ldGEgeG1sbnM6eD0iYWRvYmU6bnM6bWV0YS8iIHg6eG1wdGs9IkFkb2JlIFhNUCBDb3JlIDUuMC1jMDYwIDYxLjEzNDc3NywgMjAxMC8wMi8xMi0xNzozMjowMCAgICAgICAgIj4gPHJkZjpSREYgeG1sbnM6cmRmPSJodHRwOi8vd3d3LnczLm9yZy8xOTk5LzAyLzIyLXJkZi1zeW50YXgtbnMjIj4gPHJkZjpEZXNjcmlwdGlvbiByZGY6YWJvdXQ9IiIgeG1sbnM6eG1wPSJodHRwOi8vbnMuYWRvYmUuY29tL3hhcC8xLjAvIiB4bWxuczp4bXBNTT0iaHR0cDovL25zLmFkb2JlLmNvbS94YXAvMS4wL21tLyIgeG1sbnM6c3RSZWY9Imh0dHA6Ly9ucy5hZG9iZS5jb20veGFwLzEuMC9zVHlwZS9SZXNvdXJjZVJlZiMiIHhtcDpDcmVhdG9yVG9vbD0iQWRvYmUgUGhvdG9zaG9wIENTNSBNYWNpbnRvc2giIHhtcE1NOkluc3RhbmNlSUQ9InhtcC5paWQ6ODdCREY5REY1NkQ3MTFFNTkyNjNEMTA5NjgwODUyRTgiIHhtcE1NOkRvY3VtZW50SUQ9InhtcC5kaWQ6ODdCREY5RTA1NkQ3MTFFNTkyNjNEMTA5NjgwODUyRTgiPiA8eG1wTU06RGVyaXZlZEZyb20gc3RSZWY6aW5zdGFuY2VJRD0ieG1wLmlpZDo4N0JERjlERDU2RDcxMUU1OTI2M0QxMDk2ODA4NTJFOCIgc3RSZWY6ZG9jdW1lbnRJRD0ieG1wLmRpZDo4N0JERjlERTU2RDcxMUU1OTI2M0QxMDk2ODA4NTJFOCIvPiA8L3JkZjpEZXNjcmlwdGlvbj4gPC9yZGY6UkRGPiA8L3g6eG1wbWV0YT4gPD94cGFja2V0IGVuZD0iciI/PlnMQ/8AAAAJUExURQAAAP///3FxcTfTiAsAAAACdFJOU/8A5bcwSgAAACFJREFUeNpiYEQDDEQJMMABTAAixcQ00ALoDiPRcwABBgB6DADly9Yx8wAAAABJRU5ErkJggg==&amp;quot;);&quot; class=&quot;geButton geAdaptiveAsset&quot; title=&quot;Format (Ctrl+Shift+P)&quot;&gt;&lt;/a&gt;&lt;a style=&quot;position: absolute; display: inline-block; top: 6px; right: 30px; padding: 2px; font-size: 14px; width: 16px; height: 16px; background-position: 50% 50%; background-size: 16px 16px; background-repeat: no-repeat; background-image: url(&amp;quot;data:image/svg+xml;base64,PHN2ZyB4bWxucz0iaHR0cDovL3d3dy53My5vcmcvMjAwMC9zdmciIHdpZHRoPSIyNCIgaGVpZ2h0PSIyNCIgdmlld0JveD0iMCAwIDI0IDI0Ij48cGF0aCBkPSJNMyA1djRoMlY1aDRWM0g1Yy0xLjEgMC0yIC45LTIgMnptMiAxMEgzdjRjMCAxLjEuOSAyIDIgMmg0di0ySDV2LTR6bTE0IDRoLTR2Mmg0YzEuMSAwIDItLjkgMi0ydi00aC0ydjR6bTAtMTZoLTR2Mmg0djRoMlY1YzAtMS4xLS45LTItMi0yeiIvPjwvc3ZnPg==&amp;quot;);&quot; class=&quot;geButton geAdaptiveAsset&quot; title=&quot;Fullscreen&quot;&gt;&lt;/a&gt;&lt;/div&gt;&lt;div style=&quot;width: 12px; z-index: 1; touch-action: none; top: 69px; left: 212px; bottom: 37px;&quot; class=&quot;geHsplit&quot;&gt;&lt;/div&gt;&lt;div style=&quot;position: absolute; clear: both; left: 0px; top: 0px; z-index: 10000; border-width: 1px; border-style: solid; border-color: threedhighlight threedshadow threedshadow threedhighlight; border-image: initial; background: threedface;&quot;&gt;&lt;/div&gt;" style="text;html=1;strokeColor=none;fillColor=none;align=center;verticalAlign=middle;whiteSpace=wrap;rounded=0;shadow=1;fontSize=13;fontColor=#FFFFFF;movable=0;resizable=0;rotatable=0;deletable=0;editable=0;connectable=0;" vertex="1" parent="1">
                    <mxGeometry x="33.5" y="313.5" width="97.5" height="27" as="geometry"/>
                </mxCell>
                <mxCell id="55" value="&lt;ul&gt;&lt;li&gt;Bias&lt;/li&gt;&lt;/ul&gt;&lt;div style=&quot;left: 212px; bottom: 0px; right: 240px; height: 36px;&quot; class=&quot;geTabContainer geTabItem&quot;&gt;&lt;div class=&quot;geTabScroller&quot;&gt;&lt;div draggable=&quot;true&quot; title=&quot;Page-1 (niPRL1f2Gw76KjAHTD3v) [1]&quot; class=&quot;geTab gePageTab geActivePage&quot;&gt;&lt;span&gt;Page-1&lt;/span&gt;&lt;div style=&quot;background-image: url(&amp;quot;data:image/svg+xml;base64,PCFET0NUWVBFIHN2ZyBQVUJMSUMgIi0vL1czQy8vRFREIFNWRyAxLjEvL0VOIiAiaHR0cDovL3d3dy53My5vcmcvR3JhcGhpY3MvU1ZHLzEuMS9EVEQvc3ZnMTEuZHRkIj48c3ZnIHhtbG5zPSJodHRwOi8vd3d3LnczLm9yZy8yMDAwL3N2ZyIgeG1sbnM6eGxpbms9Imh0dHA6Ly93d3cudzMub3JnLzE5OTkveGxpbmsiIHdpZHRoPSIxNHB4IiBoZWlnaHQ9IjEwcHgiIHZlcnNpb249IjEuMSI+PHBhdGggZD0iTSAzIDcgTCA3IDMgTCAxMSA3IiBzdHJva2U9IiM3MDcwNzAiIHN0cm9rZS13aWR0aD0iMiIgZmlsbD0ibm9uZSIvPjwvc3ZnPg==&amp;quot;); background-position: center center; background-repeat: no-repeat; background-size: 10px;&quot; class=&quot;geTabMenuButton&quot;&gt;&lt;/div&gt;&lt;/div&gt;&lt;/div&gt;&lt;div style=&quot;width: 30px;&quot; title=&quot;Insert Page&quot; class=&quot;geTab geControlTab&quot;&gt;&lt;div style=&quot;background-image: url(&amp;quot;data:image/svg+xml;base64,PHN2ZyB4bWxucz0iaHR0cDovL3d3dy53My5vcmcvMjAwMC9zdmciIHdpZHRoPSIyNCIgaGVpZ2h0PSIyNCIgdmlld0JveD0iMCAwIDI0IDI0Ij48cGF0aCBkPSJNMTkgMTNoLTZ2NmgtMnYtNkg1di0yaDZWNWgydjZoNnYyeiIvPjwvc3ZnPg==&amp;quot;); background-repeat: no-repeat; background-position: center center; background-size: 24px; position: relative; opacity: 0.5; width: 100%; height: 100%;&quot; class=&quot;geAdaptiveAsset&quot;&gt;&lt;/div&gt;&lt;/div&gt;&lt;div style=&quot;width: 30px; opacity: 0; transition: 0.2s linear;&quot; class=&quot;geTab geControlTab&quot;&gt;&lt;div style=&quot;background-image: url(&amp;quot;data:image/svg+xml;base64,PHN2ZyB4bWxucz0iaHR0cDovL3d3dy53My5vcmcvMjAwMC9zdmciIGhlaWdodD0iNDgiIHdpZHRoPSI0OCI+PHBhdGggZD0iTTI4LjA1IDM1LjMgMTYuNyAyMy45NSAyOC4wNSAxMi42bDEuNiAxLjY1LTkuNyA5LjcgOS43IDkuNzVaIi8+PC9zdmc+&amp;quot;); background-repeat: no-repeat; background-position: center center; background-size: 24px; position: relative; opacity: 0.5; width: 100%; height: 100%;&quot; class=&quot;geAdaptiveAsset&quot;&gt;&lt;/div&gt;&lt;/div&gt;&lt;div style=&quot;width: 30px; opacity: 0; transition: 0.2s linear;&quot; class=&quot;geTab geControlTab&quot;&gt;&lt;div style=&quot;background-image: url(&amp;quot;data:image/svg+xml;base64,PHN2ZyB4bWxucz0iaHR0cDovL3d3dy53My5vcmcvMjAwMC9zdmciIGhlaWdodD0iNDgiIHdpZHRoPSI0OCI+PHBhdGggZD0ibTE4Ljc1IDM1LjMtMS42LTEuNiA5LjctOS43NS05LjctOS43IDEuNi0xLjY1TDMwLjEgMjMuOTVaIi8+PC9zdmc+&amp;quot;); background-repeat: no-repeat; background-position: center center; background-size: 24px; position: relative; opacity: 0.5; width: 100%; height: 100%;&quot; class=&quot;geAdaptiveAsset&quot;&gt;&lt;/div&gt;&lt;/div&gt;&lt;/div&gt;&lt;div style=&quot;left: 0px; right: 0px; top: 30px; height: 38px;&quot; class=&quot;geToolbarContainer&quot;&gt;&lt;div class=&quot;geToolbar&quot;&gt;&lt;a style=&quot;position: relative; white-space: nowrap; overflow: hidden; padding-right: 18px;&quot; title=&quot;Style&quot; class=&quot;geLabel&quot;&gt;Style&lt;img style=&quot;position: absolute; right: 1px; top: 5px;&quot; src=&quot;data:image/gif;base64,R0lGODlhDQANAIABAHt7e////yH/C1hNUCBEYXRhWE1QPD94cGFja2V0IGJlZ2luPSLvu78iIGlkPSJXNU0wTXBDZWhpSHpyZVN6TlRjemtjOWQiPz4gPHg6eG1wbWV0YSB4bWxuczp4PSJhZG9iZTpuczptZXRhLyIgeDp4bXB0az0iQWRvYmUgWE1QIENvcmUgNS4wLWMwNjAgNjEuMTM0Nzc3LCAyMDEwLzAyLzEyLTE3OjMyOjAwICAgICAgICAiPiA8cmRmOlJERiB4bWxuczpyZGY9Imh0dHA6Ly93d3cudzMub3JnLzE5OTkvMDIvMjItcmRmLXN5bnRheC1ucyMiPiA8cmRmOkRlc2NyaXB0aW9uIHJkZjphYm91dD0iIiB4bWxuczp4bXA9Imh0dHA6Ly9ucy5hZG9iZS5jb20veGFwLzEuMC8iIHhtbG5zOnhtcE1NPSJodHRwOi8vbnMuYWRvYmUuY29tL3hhcC8xLjAvbW0vIiB4bWxuczpzdFJlZj0iaHR0cDovL25zLmFkb2JlLmNvbS94YXAvMS4wL3NUeXBlL1Jlc291cmNlUmVmIyIgeG1wOkNyZWF0b3JUb29sPSJBZG9iZSBQaG90b3Nob3AgQ1M1IE1hY2ludG9zaCIgeG1wTU06SW5zdGFuY2VJRD0ieG1wLmlpZDpCREM1NkJFMjE0NEMxMUU1ODk1Q0M5MjQ0MTA4QjNDMSIgeG1wTU06RG9jdW1lbnRJRD0ieG1wLmRpZDpCREM1NkJFMzE0NEMxMUU1ODk1Q0M5MjQ0MTA4QjNDMSI+IDx4bXBNTTpEZXJpdmVkRnJvbSBzdFJlZjppbnN0YW5jZUlEPSJ4bXAuaWlkOkQzOUMzMjZCMTQ0QjExRTU4OTVDQzkyNDQxMDhCM0MxIiBzdFJlZjpkb2N1bWVudElEPSJ4bXAuZGlkOkQzOUMzMjZDMTQ0QjExRTU4OTVDQzkyNDQxMDhCM0MxIi8+IDwvcmRmOkRlc2NyaXB0aW9uPiA8L3JkZjpSREY+IDwveDp4bXBtZXRhPiA8P3hwYWNrZXQgZW5kPSJyIj8+Af/+/fz7+vn49/b19PPy8fDv7u3s6+rp6Ofm5eTj4uHg397d3Nva2djX1tXU09LR0M/OzczLysnIx8bFxMPCwcC/vr28u7q5uLe2tbSzsrGwr66trKuqqainpqWko6KhoJ+enZybmpmYl5aVlJOSkZCPjo2Mi4qJiIeGhYSDgoGAf359fHt6eXh3dnV0c3JxcG9ubWxramloZ2ZlZGNiYWBfXl1cW1pZWFdWVVRTUlFQT05NTEtKSUhHRkVEQ0JBQD8+PTw7Ojk4NzY1NDMyMTAvLi0sKyopKCcmJSQjIiEgHx4dHBsaGRgXFhUUExIREA8ODQwLCgkIBwYFBAMCAQAAIfkEAQAAAQAsAAAAAA0ADQAAAhGMj6nL3QAjVHIu6azbvPtWAAA7&quot; valign=&quot;middle&quot; border=&quot;0&quot;&gt;&lt;/a&gt;&lt;div class=&quot;geSeparator&quot;&gt;&lt;/div&gt;&lt;a style=&quot;position: relative; white-space: nowrap; overflow: hidden; width: 68px; padding-right: 18px;&quot; title=&quot;Font Family&quot; class=&quot;geLabel&quot;&gt;&lt;div style=&quot;display: inline-block; overflow: hidden; text-overflow: ellipsis; max-width: 66px;&quot;&gt;Helvetica&lt;/div&gt;&lt;img style=&quot;position: absolute; right: 4px; top: 6px;&quot; src=&quot;data:image/gif;base64,R0lGODlhDQANAIABAHt7e////yH/C1hNUCBEYXRhWE1QPD94cGFja2V0IGJlZ2luPSLvu78iIGlkPSJXNU0wTXBDZWhpSHpyZVN6TlRjemtjOWQiPz4gPHg6eG1wbWV0YSB4bWxuczp4PSJhZG9iZTpuczptZXRhLyIgeDp4bXB0az0iQWRvYmUgWE1QIENvcmUgNS4wLWMwNjAgNjEuMTM0Nzc3LCAyMDEwLzAyLzEyLTE3OjMyOjAwICAgICAgICAiPiA8cmRmOlJERiB4bWxuczpyZGY9Imh0dHA6Ly93d3cudzMub3JnLzE5OTkvMDIvMjItcmRmLXN5bnRheC1ucyMiPiA8cmRmOkRlc2NyaXB0aW9uIHJkZjphYm91dD0iIiB4bWxuczp4bXA9Imh0dHA6Ly9ucy5hZG9iZS5jb20veGFwLzEuMC8iIHhtbG5zOnhtcE1NPSJodHRwOi8vbnMuYWRvYmUuY29tL3hhcC8xLjAvbW0vIiB4bWxuczpzdFJlZj0iaHR0cDovL25zLmFkb2JlLmNvbS94YXAvMS4wL3NUeXBlL1Jlc291cmNlUmVmIyIgeG1wOkNyZWF0b3JUb29sPSJBZG9iZSBQaG90b3Nob3AgQ1M1IE1hY2ludG9zaCIgeG1wTU06SW5zdGFuY2VJRD0ieG1wLmlpZDpCREM1NkJFMjE0NEMxMUU1ODk1Q0M5MjQ0MTA4QjNDMSIgeG1wTU06RG9jdW1lbnRJRD0ieG1wLmRpZDpCREM1NkJFMzE0NEMxMUU1ODk1Q0M5MjQ0MTA4QjNDMSI+IDx4bXBNTTpEZXJpdmVkRnJvbSBzdFJlZjppbnN0YW5jZUlEPSJ4bXAuaWlkOkQzOUMzMjZCMTQ0QjExRTU4OTVDQzkyNDQxMDhCM0MxIiBzdFJlZjpkb2N1bWVudElEPSJ4bXAuZGlkOkQzOUMzMjZDMTQ0QjExRTU4OTVDQzkyNDQxMDhCM0MxIi8+IDwvcmRmOkRlc2NyaXB0aW9uPiA8L3JkZjpSREY+IDwveDp4bXBtZXRhPiA8P3hwYWNrZXQgZW5kPSJyIj8+Af/+/fz7+vn49/b19PPy8fDv7u3s6+rp6Ofm5eTj4uHg397d3Nva2djX1tXU09LR0M/OzczLysnIx8bFxMPCwcC/vr28u7q5uLe2tbSzsrGwr66trKuqqainpqWko6KhoJ+enZybmpmYl5aVlJOSkZCPjo2Mi4qJiIeGhYSDgoGAf359fHt6eXh3dnV0c3JxcG9ubWxramloZ2ZlZGNiYWBfXl1cW1pZWFdWVVRTUlFQT05NTEtKSUhHRkVEQ0JBQD8+PTw7Ojk4NzY1NDMyMTAvLi0sKyopKCcmJSQjIiEgHx4dHBsaGRgXFhUUExIREA8ODQwLCgkIBwYFBAMCAQAAIfkEAQAAAQAsAAAAAA0ADQAAAhGMj6nL3QAjVHIu6azbvPtWAAA7&quot; valign=&quot;middle&quot; border=&quot;0&quot;&gt;&lt;/a&gt;&lt;div class=&quot;geSeparator&quot;&gt;&lt;/div&gt;&lt;a style=&quot;position: relative; white-space: nowrap; overflow: hidden; width: 24px; padding-right: 18px;&quot; title=&quot;Font Size&quot; class=&quot;geLabel&quot;&gt;&lt;div style=&quot;display: inline-block; overflow: hidden; text-overflow: ellipsis; max-width: 24px;&quot;&gt;13&lt;/div&gt;&lt;img style=&quot;position: absolute; right: 4px; top: 6px;&quot; src=&quot;data:image/gif;base64,R0lGODlhDQANAIABAHt7e////yH/C1hNUCBEYXRhWE1QPD94cGFja2V0IGJlZ2luPSLvu78iIGlkPSJXNU0wTXBDZWhpSHpyZVN6TlRjemtjOWQiPz4gPHg6eG1wbWV0YSB4bWxuczp4PSJhZG9iZTpuczptZXRhLyIgeDp4bXB0az0iQWRvYmUgWE1QIENvcmUgNS4wLWMwNjAgNjEuMTM0Nzc3LCAyMDEwLzAyLzEyLTE3OjMyOjAwICAgICAgICAiPiA8cmRmOlJERiB4bWxuczpyZGY9Imh0dHA6Ly93d3cudzMub3JnLzE5OTkvMDIvMjItcmRmLXN5bnRheC1ucyMiPiA8cmRmOkRlc2NyaXB0aW9uIHJkZjphYm91dD0iIiB4bWxuczp4bXA9Imh0dHA6Ly9ucy5hZG9iZS5jb20veGFwLzEuMC8iIHhtbG5zOnhtcE1NPSJodHRwOi8vbnMuYWRvYmUuY29tL3hhcC8xLjAvbW0vIiB4bWxuczpzdFJlZj0iaHR0cDovL25zLmFkb2JlLmNvbS94YXAvMS4wL3NUeXBlL1Jlc291cmNlUmVmIyIgeG1wOkNyZWF0b3JUb29sPSJBZG9iZSBQaG90b3Nob3AgQ1M1IE1hY2ludG9zaCIgeG1wTU06SW5zdGFuY2VJRD0ieG1wLmlpZDpCREM1NkJFMjE0NEMxMUU1ODk1Q0M5MjQ0MTA4QjNDMSIgeG1wTU06RG9jdW1lbnRJRD0ieG1wLmRpZDpCREM1NkJFMzE0NEMxMUU1ODk1Q0M5MjQ0MTA4QjNDMSI+IDx4bXBNTTpEZXJpdmVkRnJvbSBzdFJlZjppbnN0YW5jZUlEPSJ4bXAuaWlkOkQzOUMzMjZCMTQ0QjExRTU4OTVDQzkyNDQxMDhCM0MxIiBzdFJlZjpkb2N1bWVudElEPSJ4bXAuZGlkOkQzOUMzMjZDMTQ0QjExRTU4OTVDQzkyNDQxMDhCM0MxIi8+IDwvcmRmOkRlc2NyaXB0aW9uPiA8L3JkZjpSREY+IDwveDp4bXBtZXRhPiA8P3hwYWNrZXQgZW5kPSJyIj8+Af/+/fz7+vn49/b19PPy8fDv7u3s6+rp6Ofm5eTj4uHg397d3Nva2djX1tXU09LR0M/OzczLysnIx8bFxMPCwcC/vr28u7q5uLe2tbSzsrGwr66trKuqqainpqWko6KhoJ+enZybmpmYl5aVlJOSkZCPjo2Mi4qJiIeGhYSDgoGAf359fHt6eXh3dnV0c3JxcG9ubWxramloZ2ZlZGNiYWBfXl1cW1pZWFdWVVRTUlFQT05NTEtKSUhHRkVEQ0JBQD8+PTw7Ojk4NzY1NDMyMTAvLi0sKyopKCcmJSQjIiEgHx4dHBsaGRgXFhUUExIREA8ODQwLCgkIBwYFBAMCAQAAIfkEAQAAAQAsAAAAAA0ADQAAAhGMj6nL3QAjVHIu6azbvPtWAAA7&quot; valign=&quot;middle&quot; border=&quot;0&quot;&gt;&lt;/a&gt;&lt;div class=&quot;geSeparator&quot;&gt;&lt;/div&gt;&lt;a title=&quot;Undo (Ctrl+Z)&quot; class=&quot;geButton&quot;&gt;&lt;div class=&quot;geSprite geSprite-undo&quot;&gt;&lt;/div&gt;&lt;/a&gt;&lt;a title=&quot;Redo (Ctrl+Y)&quot; class=&quot;geButton&quot;&gt;&lt;div class=&quot;geSprite geSprite-redo&quot;&gt;&lt;/div&gt;&lt;/a&gt;&lt;div class=&quot;geSeparator&quot;&gt;&lt;/div&gt;&lt;a title=&quot;Bold (Ctrl+B)&quot; class=&quot;geButton&quot;&gt;&lt;div class=&quot;geSprite geSprite-bold&quot;&gt;&lt;/div&gt;&lt;/a&gt;&lt;a title=&quot;Italic (Ctrl+I)&quot; class=&quot;geButton&quot;&gt;&lt;div class=&quot;geSprite geSprite-italic&quot;&gt;&lt;/div&gt;&lt;/a&gt;&lt;a title=&quot;Underline (Ctrl+U)&quot; class=&quot;geButton&quot;&gt;&lt;div class=&quot;geSprite geSprite-underline&quot;&gt;&lt;/div&gt;&lt;/a&gt;&lt;a style=&quot;position: relative; white-space: nowrap; overflow: hidden; width: 30px;&quot; title=&quot;Align&quot; class=&quot;geButton&quot;&gt;&lt;div style=&quot;margin-left: -2px;&quot; class=&quot;geSprite geSprite-left&quot;&gt;&lt;/div&gt;&lt;img style=&quot;position: absolute; right: 4px; top: 5px; left: 22px;&quot; src=&quot;data:image/gif;base64,R0lGODlhDQANAIABAHt7e////yH/C1hNUCBEYXRhWE1QPD94cGFja2V0IGJlZ2luPSLvu78iIGlkPSJXNU0wTXBDZWhpSHpyZVN6TlRjemtjOWQiPz4gPHg6eG1wbWV0YSB4bWxuczp4PSJhZG9iZTpuczptZXRhLyIgeDp4bXB0az0iQWRvYmUgWE1QIENvcmUgNS4wLWMwNjAgNjEuMTM0Nzc3LCAyMDEwLzAyLzEyLTE3OjMyOjAwICAgICAgICAiPiA8cmRmOlJERiB4bWxuczpyZGY9Imh0dHA6Ly93d3cudzMub3JnLzE5OTkvMDIvMjItcmRmLXN5bnRheC1ucyMiPiA8cmRmOkRlc2NyaXB0aW9uIHJkZjphYm91dD0iIiB4bWxuczp4bXA9Imh0dHA6Ly9ucy5hZG9iZS5jb20veGFwLzEuMC8iIHhtbG5zOnhtcE1NPSJodHRwOi8vbnMuYWRvYmUuY29tL3hhcC8xLjAvbW0vIiB4bWxuczpzdFJlZj0iaHR0cDovL25zLmFkb2JlLmNvbS94YXAvMS4wL3NUeXBlL1Jlc291cmNlUmVmIyIgeG1wOkNyZWF0b3JUb29sPSJBZG9iZSBQaG90b3Nob3AgQ1M1IE1hY2ludG9zaCIgeG1wTU06SW5zdGFuY2VJRD0ieG1wLmlpZDpCREM1NkJFMjE0NEMxMUU1ODk1Q0M5MjQ0MTA4QjNDMSIgeG1wTU06RG9jdW1lbnRJRD0ieG1wLmRpZDpCREM1NkJFMzE0NEMxMUU1ODk1Q0M5MjQ0MTA4QjNDMSI+IDx4bXBNTTpEZXJpdmVkRnJvbSBzdFJlZjppbnN0YW5jZUlEPSJ4bXAuaWlkOkQzOUMzMjZCMTQ0QjExRTU4OTVDQzkyNDQxMDhCM0MxIiBzdFJlZjpkb2N1bWVudElEPSJ4bXAuZGlkOkQzOUMzMjZDMTQ0QjExRTU4OTVDQzkyNDQxMDhCM0MxIi8+IDwvcmRmOkRlc2NyaXB0aW9uPiA8L3JkZjpSREY+IDwveDp4bXBtZXRhPiA8P3hwYWNrZXQgZW5kPSJyIj8+Af/+/fz7+vn49/b19PPy8fDv7u3s6+rp6Ofm5eTj4uHg397d3Nva2djX1tXU09LR0M/OzczLysnIx8bFxMPCwcC/vr28u7q5uLe2tbSzsrGwr66trKuqqainpqWko6KhoJ+enZybmpmYl5aVlJOSkZCPjo2Mi4qJiIeGhYSDgoGAf359fHt6eXh3dnV0c3JxcG9ubWxramloZ2ZlZGNiYWBfXl1cW1pZWFdWVVRTUlFQT05NTEtKSUhHRkVEQ0JBQD8+PTw7Ojk4NzY1NDMyMTAvLi0sKyopKCcmJSQjIiEgHx4dHBsaGRgXFhUUExIREA8ODQwLCgkIBwYFBAMCAQAAIfkEAQAAAQAsAAAAAA0ADQAAAhGMj6nL3QAjVHIu6azbvPtWAAA7&quot; valign=&quot;middle&quot; border=&quot;0&quot;&gt;&lt;/a&gt;&lt;a style=&quot;position: relative; white-space: nowrap; overflow: hidden; width: 30px;&quot; title=&quot;Format&quot; class=&quot;geButton&quot;&gt;&lt;div style=&quot;margin-left: -2px;&quot; class=&quot;geSprite geSprite-dots&quot;&gt;&lt;/div&gt;&lt;img style=&quot;position: absolute; right: 4px; top: 5px; left: 22px;&quot; src=&quot;data:image/gif;base64,R0lGODlhDQANAIABAHt7e////yH/C1hNUCBEYXRhWE1QPD94cGFja2V0IGJlZ2luPSLvu78iIGlkPSJXNU0wTXBDZWhpSHpyZVN6TlRjemtjOWQiPz4gPHg6eG1wbWV0YSB4bWxuczp4PSJhZG9iZTpuczptZXRhLyIgeDp4bXB0az0iQWRvYmUgWE1QIENvcmUgNS4wLWMwNjAgNjEuMTM0Nzc3LCAyMDEwLzAyLzEyLTE3OjMyOjAwICAgICAgICAiPiA8cmRmOlJERiB4bWxuczpyZGY9Imh0dHA6Ly93d3cudzMub3JnLzE5OTkvMDIvMjItcmRmLXN5bnRheC1ucyMiPiA8cmRmOkRlc2NyaXB0aW9uIHJkZjphYm91dD0iIiB4bWxuczp4bXA9Imh0dHA6Ly9ucy5hZG9iZS5jb20veGFwLzEuMC8iIHhtbG5zOnhtcE1NPSJodHRwOi8vbnMuYWRvYmUuY29tL3hhcC8xLjAvbW0vIiB4bWxuczpzdFJlZj0iaHR0cDovL25zLmFkb2JlLmNvbS94YXAvMS4wL3NUeXBlL1Jlc291cmNlUmVmIyIgeG1wOkNyZWF0b3JUb29sPSJBZG9iZSBQaG90b3Nob3AgQ1M1IE1hY2ludG9zaCIgeG1wTU06SW5zdGFuY2VJRD0ieG1wLmlpZDpCREM1NkJFMjE0NEMxMUU1ODk1Q0M5MjQ0MTA4QjNDMSIgeG1wTU06RG9jdW1lbnRJRD0ieG1wLmRpZDpCREM1NkJFMzE0NEMxMUU1ODk1Q0M5MjQ0MTA4QjNDMSI+IDx4bXBNTTpEZXJpdmVkRnJvbSBzdFJlZjppbnN0YW5jZUlEPSJ4bXAuaWlkOkQzOUMzMjZCMTQ0QjExRTU4OTVDQzkyNDQxMDhCM0MxIiBzdFJlZjpkb2N1bWVudElEPSJ4bXAuZGlkOkQzOUMzMjZDMTQ0QjExRTU4OTVDQzkyNDQxMDhCM0MxIi8+IDwvcmRmOkRlc2NyaXB0aW9uPiA8L3JkZjpSREY+IDwveDp4bXBtZXRhPiA8P3hwYWNrZXQgZW5kPSJyIj8+Af/+/fz7+vn49/b19PPy8fDv7u3s6+rp6Ofm5eTj4uHg397d3Nva2djX1tXU09LR0M/OzczLysnIx8bFxMPCwcC/vr28u7q5uLe2tbSzsrGwr66trKuqqainpqWko6KhoJ+enZybmpmYl5aVlJOSkZCPjo2Mi4qJiIeGhYSDgoGAf359fHt6eXh3dnV0c3JxcG9ubWxramloZ2ZlZGNiYWBfXl1cW1pZWFdWVVRTUlFQT05NTEtKSUhHRkVEQ0JBQD8+PTw7Ojk4NzY1NDMyMTAvLi0sKyopKCcmJSQjIiEgHx4dHBsaGRgXFhUUExIREA8ODQwLCgkIBwYFBAMCAQAAIfkEAQAAAQAsAAAAAA0ADQAAAhGMj6nL3QAjVHIu6azbvPtWAAA7&quot; valign=&quot;middle&quot; border=&quot;0&quot;&gt;&lt;/a&gt;&lt;div class=&quot;geSeparator&quot;&gt;&lt;/div&gt;&lt;a title=&quot;HTML&quot; class=&quot;geButton&quot;&gt;&lt;div class=&quot;geSprite geIcon geSprite geSprite-code&quot;&gt;&lt;/div&gt;&lt;/a&gt;&lt;div class=&quot;geSeparator&quot;&gt;&lt;/div&gt;&lt;a style=&quot;white-space: nowrap; overflow: hidden; position: relative; width: 30px;&quot; title=&quot;Insert&quot; class=&quot;geLabel&quot;&gt;&lt;div style=&quot;margin-left: -4px; margin-top: -3px;&quot; class=&quot;geSprite geSprite-plus&quot;&gt;&lt;/div&gt;&lt;img style=&quot;position: absolute; right: 4px; top: 5px; left: 24px;&quot; src=&quot;data:image/gif;base64,R0lGODlhDQANAIABAHt7e////yH/C1hNUCBEYXRhWE1QPD94cGFja2V0IGJlZ2luPSLvu78iIGlkPSJXNU0wTXBDZWhpSHpyZVN6TlRjemtjOWQiPz4gPHg6eG1wbWV0YSB4bWxuczp4PSJhZG9iZTpuczptZXRhLyIgeDp4bXB0az0iQWRvYmUgWE1QIENvcmUgNS4wLWMwNjAgNjEuMTM0Nzc3LCAyMDEwLzAyLzEyLTE3OjMyOjAwICAgICAgICAiPiA8cmRmOlJERiB4bWxuczpyZGY9Imh0dHA6Ly93d3cudzMub3JnLzE5OTkvMDIvMjItcmRmLXN5bnRheC1ucyMiPiA8cmRmOkRlc2NyaXB0aW9uIHJkZjphYm91dD0iIiB4bWxuczp4bXA9Imh0dHA6Ly9ucy5hZG9iZS5jb20veGFwLzEuMC8iIHhtbG5zOnhtcE1NPSJodHRwOi8vbnMuYWRvYmUuY29tL3hhcC8xLjAvbW0vIiB4bWxuczpzdFJlZj0iaHR0cDovL25zLmFkb2JlLmNvbS94YXAvMS4wL3NUeXBlL1Jlc291cmNlUmVmIyIgeG1wOkNyZWF0b3JUb29sPSJBZG9iZSBQaG90b3Nob3AgQ1M1IE1hY2ludG9zaCIgeG1wTU06SW5zdGFuY2VJRD0ieG1wLmlpZDpCREM1NkJFMjE0NEMxMUU1ODk1Q0M5MjQ0MTA4QjNDMSIgeG1wTU06RG9jdW1lbnRJRD0ieG1wLmRpZDpCREM1NkJFMzE0NEMxMUU1ODk1Q0M5MjQ0MTA4QjNDMSI+IDx4bXBNTTpEZXJpdmVkRnJvbSBzdFJlZjppbnN0YW5jZUlEPSJ4bXAuaWlkOkQzOUMzMjZCMTQ0QjExRTU4OTVDQzkyNDQxMDhCM0MxIiBzdFJlZjpkb2N1bWVudElEPSJ4bXAuZGlkOkQzOUMzMjZDMTQ0QjExRTU4OTVDQzkyNDQxMDhCM0MxIi8+IDwvcmRmOkRlc2NyaXB0aW9uPiA8L3JkZjpSREY+IDwveDp4bXBtZXRhPiA8P3hwYWNrZXQgZW5kPSJyIj8+Af/+/fz7+vn49/b19PPy8fDv7u3s6+rp6Ofm5eTj4uHg397d3Nva2djX1tXU09LR0M/OzczLysnIx8bFxMPCwcC/vr28u7q5uLe2tbSzsrGwr66trKuqqainpqWko6KhoJ+enZybmpmYl5aVlJOSkZCPjo2Mi4qJiIeGhYSDgoGAf359fHt6eXh3dnV0c3JxcG9ubWxramloZ2ZlZGNiYWBfXl1cW1pZWFdWVVRTUlFQT05NTEtKSUhHRkVEQ0JBQD8+PTw7Ojk4NzY1NDMyMTAvLi0sKyopKCcmJSQjIiEgHx4dHBsaGRgXFhUUExIREA8ODQwLCgkIBwYFBAMCAQAAIfkEAQAAAQAsAAAAAA0ADQAAAhGMj6nL3QAjVHIu6azbvPtWAAA7&quot; valign=&quot;middle&quot; border=&quot;0&quot;&gt;&lt;/a&gt;&lt;div class=&quot;geSeparator&quot;&gt;&lt;/div&gt;&lt;a style=&quot;position: relative; white-space: nowrap; overflow: hidden; width: 30px;&quot; title=&quot;Table&quot; class=&quot;geButton&quot;&gt;&lt;div style=&quot;margin-left: -2px;&quot; class=&quot;geSprite geSprite-table&quot;&gt;&lt;/div&gt;&lt;img style=&quot;position: absolute; right: 4px; top: 5px; left: 22px;&quot; src=&quot;data:image/gif;base64,R0lGODlhDQANAIABAHt7e////yH/C1hNUCBEYXRhWE1QPD94cGFja2V0IGJlZ2luPSLvu78iIGlkPSJXNU0wTXBDZWhpSHpyZVN6TlRjemtjOWQiPz4gPHg6eG1wbWV0YSB4bWxuczp4PSJhZG9iZTpuczptZXRhLyIgeDp4bXB0az0iQWRvYmUgWE1QIENvcmUgNS4wLWMwNjAgNjEuMTM0Nzc3LCAyMDEwLzAyLzEyLTE3OjMyOjAwICAgICAgICAiPiA8cmRmOlJERiB4bWxuczpyZGY9Imh0dHA6Ly93d3cudzMub3JnLzE5OTkvMDIvMjItcmRmLXN5bnRheC1ucyMiPiA8cmRmOkRlc2NyaXB0aW9uIHJkZjphYm91dD0iIiB4bWxuczp4bXA9Imh0dHA6Ly9ucy5hZG9iZS5jb20veGFwLzEuMC8iIHhtbG5zOnhtcE1NPSJodHRwOi8vbnMuYWRvYmUuY29tL3hhcC8xLjAvbW0vIiB4bWxuczpzdFJlZj0iaHR0cDovL25zLmFkb2JlLmNvbS94YXAvMS4wL3NUeXBlL1Jlc291cmNlUmVmIyIgeG1wOkNyZWF0b3JUb29sPSJBZG9iZSBQaG90b3Nob3AgQ1M1IE1hY2ludG9zaCIgeG1wTU06SW5zdGFuY2VJRD0ieG1wLmlpZDpCREM1NkJFMjE0NEMxMUU1ODk1Q0M5MjQ0MTA4QjNDMSIgeG1wTU06RG9jdW1lbnRJRD0ieG1wLmRpZDpCREM1NkJFMzE0NEMxMUU1ODk1Q0M5MjQ0MTA4QjNDMSI+IDx4bXBNTTpEZXJpdmVkRnJvbSBzdFJlZjppbnN0YW5jZUlEPSJ4bXAuaWlkOkQzOUMzMjZCMTQ0QjExRTU4OTVDQzkyNDQxMDhCM0MxIiBzdFJlZjpkb2N1bWVudElEPSJ4bXAuZGlkOkQzOUMzMjZDMTQ0QjExRTU4OTVDQzkyNDQxMDhCM0MxIi8+IDwvcmRmOkRlc2NyaXB0aW9uPiA8L3JkZjpSREY+IDwveDp4bXBtZXRhPiA8P3hwYWNrZXQgZW5kPSJyIj8+Af/+/fz7+vn49/b19PPy8fDv7u3s6+rp6Ofm5eTj4uHg397d3Nva2djX1tXU09LR0M/OzczLysnIx8bFxMPCwcC/vr28u7q5uLe2tbSzsrGwr66trKuqqainpqWko6KhoJ+enZybmpmYl5aVlJOSkZCPjo2Mi4qJiIeGhYSDgoGAf359fHt6eXh3dnV0c3JxcG9ubWxramloZ2ZlZGNiYWBfXl1cW1pZWFdWVVRTUlFQT05NTEtKSUhHRkVEQ0JBQD8+PTw7Ojk4NzY1NDMyMTAvLi0sKyopKCcmJSQjIiEgHx4dHBsaGRgXFhUUExIREA8ODQwLCgkIBwYFBAMCAQAAIfkEAQAAAQAsAAAAAA0ADQAAAhGMj6nL3QAjVHIu6azbvPtWAAA7&quot; valign=&quot;middle&quot; border=&quot;0&quot;&gt;&lt;/a&gt;&lt;/div&gt;&lt;a style=&quot;position: absolute; display: inline-block; top: 6px; right: 10px; padding: 2px; font-size: 14px; width: 16px; height: 16px; background-position: 50% 50%; background-size: 16px 16px; background-repeat: no-repeat; background-image: url(&amp;quot;data:image/png;base64,iVBORw0KGgoAAAANSUhEUgAAABAAAAAQCAMAAAAoLQ9TAAAAGXRFWHRTb2Z0d2FyZQBBZG9iZSBJbWFnZVJlYWR5ccllPAAAAyJpVFh0WE1MOmNvbS5hZG9iZS54bXAAAAAAADw/eHBhY2tldCBiZWdpbj0i77u/IiBpZD0iVzVNME1wQ2VoaUh6cmVTek5UY3prYzlkIj8+IDx4OnhtcG1ldGEgeG1sbnM6eD0iYWRvYmU6bnM6bWV0YS8iIHg6eG1wdGs9IkFkb2JlIFhNUCBDb3JlIDUuMC1jMDYwIDYxLjEzNDc3NywgMjAxMC8wMi8xMi0xNzozMjowMCAgICAgICAgIj4gPHJkZjpSREYgeG1sbnM6cmRmPSJodHRwOi8vd3d3LnczLm9yZy8xOTk5LzAyLzIyLXJkZi1zeW50YXgtbnMjIj4gPHJkZjpEZXNjcmlwdGlvbiByZGY6YWJvdXQ9IiIgeG1sbnM6eG1wPSJodHRwOi8vbnMuYWRvYmUuY29tL3hhcC8xLjAvIiB4bWxuczp4bXBNTT0iaHR0cDovL25zLmFkb2JlLmNvbS94YXAvMS4wL21tLyIgeG1sbnM6c3RSZWY9Imh0dHA6Ly9ucy5hZG9iZS5jb20veGFwLzEuMC9zVHlwZS9SZXNvdXJjZVJlZiMiIHhtcDpDcmVhdG9yVG9vbD0iQWRvYmUgUGhvdG9zaG9wIENTNSBNYWNpbnRvc2giIHhtcE1NOkluc3RhbmNlSUQ9InhtcC5paWQ6ODdCREY5REY1NkQ3MTFFNTkyNjNEMTA5NjgwODUyRTgiIHhtcE1NOkRvY3VtZW50SUQ9InhtcC5kaWQ6ODdCREY5RTA1NkQ3MTFFNTkyNjNEMTA5NjgwODUyRTgiPiA8eG1wTU06RGVyaXZlZEZyb20gc3RSZWY6aW5zdGFuY2VJRD0ieG1wLmlpZDo4N0JERjlERDU2RDcxMUU1OTI2M0QxMDk2ODA4NTJFOCIgc3RSZWY6ZG9jdW1lbnRJRD0ieG1wLmRpZDo4N0JERjlERTU2RDcxMUU1OTI2M0QxMDk2ODA4NTJFOCIvPiA8L3JkZjpEZXNjcmlwdGlvbj4gPC9yZGY6UkRGPiA8L3g6eG1wbWV0YT4gPD94cGFja2V0IGVuZD0iciI/PlnMQ/8AAAAJUExURQAAAP///3FxcTfTiAsAAAACdFJOU/8A5bcwSgAAACFJREFUeNpiYEQDDEQJMMABTAAixcQ00ALoDiPRcwABBgB6DADly9Yx8wAAAABJRU5ErkJggg==&amp;quot;);&quot; class=&quot;geButton geAdaptiveAsset&quot; title=&quot;Format (Ctrl+Shift+P)&quot;&gt;&lt;/a&gt;&lt;a style=&quot;position: absolute; display: inline-block; top: 6px; right: 30px; padding: 2px; font-size: 14px; width: 16px; height: 16px; background-position: 50% 50%; background-size: 16px 16px; background-repeat: no-repeat; background-image: url(&amp;quot;data:image/svg+xml;base64,PHN2ZyB4bWxucz0iaHR0cDovL3d3dy53My5vcmcvMjAwMC9zdmciIHdpZHRoPSIyNCIgaGVpZ2h0PSIyNCIgdmlld0JveD0iMCAwIDI0IDI0Ij48cGF0aCBkPSJNMyA1djRoMlY1aDRWM0g1Yy0xLjEgMC0yIC45LTIgMnptMiAxMEgzdjRjMCAxLjEuOSAyIDIgMmg0di0ySDV2LTR6bTE0IDRoLTR2Mmg0YzEuMSAwIDItLjkgMi0ydi00aC0ydjR6bTAtMTZoLTR2Mmg0djRoMlY1YzAtMS4xLS45LTItMi0yeiIvPjwvc3ZnPg==&amp;quot;);&quot; class=&quot;geButton geAdaptiveAsset&quot; title=&quot;Fullscreen&quot;&gt;&lt;/a&gt;&lt;/div&gt;&lt;div style=&quot;width: 12px; z-index: 1; touch-action: none; top: 69px; left: 212px; bottom: 37px;&quot; class=&quot;geHsplit&quot;&gt;&lt;/div&gt;&lt;div style=&quot;position: absolute; clear: both; left: 0px; top: 0px; z-index: 10000; border-width: 1px; border-style: solid; border-color: threedhighlight threedshadow threedshadow threedhighlight; border-image: initial; background: threedface;&quot;&gt;&lt;/div&gt;" style="text;html=1;strokeColor=none;fillColor=none;align=center;verticalAlign=middle;whiteSpace=wrap;rounded=0;shadow=1;fontSize=13;fontColor=#FFFFFF;movable=0;resizable=0;rotatable=0;deletable=0;editable=0;connectable=0;" vertex="1" parent="1">
                    <mxGeometry x="25.5" y="332.5" width="97.5" height="27" as="geometry"/>
                </mxCell>
                <mxCell id="57" value="&lt;ul&gt;&lt;li&gt;Model&lt;/li&gt;&lt;/ul&gt;" style="text;html=1;strokeColor=none;fillColor=none;align=center;verticalAlign=middle;whiteSpace=wrap;rounded=0;shadow=1;fontSize=13;fontColor=#FFFFFF;movable=0;resizable=0;rotatable=0;deletable=0;editable=0;connectable=0;" vertex="1" parent="1">
                    <mxGeometry x="30.5" y="351" width="97.5" height="27" as="geometry"/>
                </mxCell>
                <mxCell id="58" value="&lt;ul&gt;&lt;li&gt;Data&lt;/li&gt;&lt;/ul&gt;" style="text;html=1;strokeColor=none;fillColor=none;align=center;verticalAlign=middle;whiteSpace=wrap;rounded=0;shadow=1;fontSize=13;fontColor=#FFFFFF;movable=0;resizable=0;rotatable=0;deletable=0;editable=0;connectable=0;" vertex="1" parent="1">
                    <mxGeometry x="26.5" y="370.5" width="97.5" height="27" as="geometry"/>
                </mxCell>
                <mxCell id="63" value="" style="curved=1;endArrow=classic;html=1;strokeColor=#2D7600;fontSize=13;fontColor=#FFFFFF;startSize=2;endSize=2;jumpSize=6;movable=0;resizable=0;rotatable=0;deletable=0;editable=0;connectable=0;startArrow=none;startFill=0;" edge="1" parent="1">
                    <mxGeometry width="50" height="50" relative="1" as="geometry">
                        <mxPoint x="230" y="460" as="sourcePoint"/>
                        <mxPoint x="233" y="551" as="targetPoint"/>
                        <Array as="points">
                            <mxPoint x="200" y="470"/>
                            <mxPoint x="190" y="477"/>
                            <mxPoint x="180" y="490"/>
                            <mxPoint x="180" y="520"/>
                        </Array>
                    </mxGeometry>
                </mxCell>
                <mxCell id="68" value="" style="whiteSpace=wrap;html=1;fontSize=10;fontColor=#FFFFFF;shadow=1;movable=0;resizable=0;rotatable=0;deletable=0;editable=0;connectable=0;" vertex="1" parent="1">
                    <mxGeometry x="160" y="560" width="240" height="130" as="geometry"/>
                </mxCell>
                <mxCell id="67" value="Coordinator" style="text;html=1;align=center;verticalAlign=middle;resizable=0;points=[];autosize=1;strokeColor=none;fillColor=none;fontSize=10;fontColor=#FFFFFF;movable=0;rotatable=0;deletable=0;editable=0;connectable=0;" vertex="1" parent="1">
                    <mxGeometry x="243.5" y="563" width="70" height="24" as="geometry"/>
                </mxCell>
                <mxCell id="69" value="" style="whiteSpace=wrap;html=1;fontSize=10;fontColor=#FFFFFF;shadow=1;movable=0;resizable=0;rotatable=0;deletable=0;editable=0;connectable=0;" vertex="1" parent="1">
                    <mxGeometry x="550" y="378" width="200" height="312" as="geometry"/>
                </mxCell>
                <mxCell id="70" value="&lt;br&gt;&lt;font style=&quot;font-size: 13px;&quot;&gt;&lt;br&gt;&lt;/font&gt;" style="whiteSpace=wrap;html=1;rounded=0;shadow=1;fontSize=13;fontColor=#FFFFFF;movable=0;resizable=0;rotatable=0;deletable=0;editable=0;connectable=0;" vertex="1" parent="1">
                    <mxGeometry x="288.5" y="603" width="90.5" height="47.5" as="geometry"/>
                </mxCell>
                <mxCell id="71" value="&#10;Weight Aggregator&#10;&#10;" style="text;strokeColor=none;fillColor=none;align=center;verticalAlign=middle;rounded=0;shadow=1;fontSize=13;fontColor=default;whiteSpace=wrap;movable=0;resizable=0;rotatable=0;deletable=0;editable=0;connectable=0;" vertex="1" parent="1">
                    <mxGeometry x="307" y="618" width="60" height="30" as="geometry"/>
                </mxCell>
                <mxCell id="74" value="&lt;br&gt;&lt;font style=&quot;font-size: 13px;&quot;&gt;&lt;br&gt;&lt;/font&gt;" style="whiteSpace=wrap;html=1;rounded=0;shadow=1;fontSize=13;fontColor=#FFFFFF;movable=0;resizable=0;rotatable=0;deletable=0;editable=0;connectable=0;" vertex="1" parent="1">
                    <mxGeometry x="169" y="584" width="89" height="46.25" as="geometry"/>
                </mxCell>
                <mxCell id="75" value="Monitoring" style="text;strokeColor=none;fillColor=none;align=center;verticalAlign=middle;rounded=0;shadow=1;fontSize=13;fontColor=default;whiteSpace=wrap;movable=0;resizable=0;rotatable=0;deletable=0;editable=0;connectable=0;" vertex="1" parent="1">
                    <mxGeometry x="187" y="596.25" width="48.5" height="25.25" as="geometry"/>
                </mxCell>
                <mxCell id="76" value="&lt;br&gt;&lt;font style=&quot;font-size: 13px;&quot;&gt;&lt;br&gt;&lt;/font&gt;" style="whiteSpace=wrap;html=1;rounded=0;shadow=1;fontSize=13;fontColor=#FFFFFF;movable=0;resizable=0;rotatable=0;deletable=0;editable=0;connectable=0;" vertex="1" parent="1">
                    <mxGeometry x="597.5" y="419.5" width="105" height="57.5" as="geometry"/>
                </mxCell>
                <mxCell id="77" value="&lt;font style=&quot;font-size: 12px;&quot;&gt;Computing Layer&lt;/font&gt;" style="text;html=1;align=center;verticalAlign=middle;resizable=0;points=[];autosize=1;strokeColor=none;fillColor=none;fontSize=10;fontColor=#FFFFFF;movable=0;rotatable=0;deletable=0;editable=0;connectable=0;" vertex="1" parent="1">
                    <mxGeometry x="597.5" y="381" width="110" height="30" as="geometry"/>
                </mxCell>
                <mxCell id="78" value="&lt;font style=&quot;font-size: 12px;&quot;&gt;Local Trainer&lt;/font&gt;" style="text;html=1;align=center;verticalAlign=middle;resizable=0;points=[];autosize=1;strokeColor=none;fillColor=none;fontSize=10;fontColor=#FFFFFF;movable=0;rotatable=0;deletable=0;editable=0;connectable=0;" vertex="1" parent="1">
                    <mxGeometry x="605" y="432" width="90" height="30" as="geometry"/>
                </mxCell>
                <mxCell id="81" value="" style="curved=1;endArrow=classic;html=1;strokeColor=#006EAF;fontSize=12;fontColor=default;startSize=2;endSize=2;jumpSize=6;entryX=0.424;entryY=-0.098;entryDx=0;entryDy=0;entryPerimeter=0;movable=0;resizable=0;rotatable=0;deletable=0;editable=0;connectable=0;fillColor=#1ba1e2;" edge="1" parent="1" target="77">
                    <mxGeometry width="50" height="50" relative="1" as="geometry">
                        <mxPoint x="420" y="330" as="sourcePoint"/>
                        <mxPoint x="548.5" y="309.5" as="targetPoint"/>
                        <Array as="points">
                            <mxPoint x="430" y="320"/>
                            <mxPoint x="498.5" y="309.5"/>
                            <mxPoint x="646" y="322"/>
                            <mxPoint x="658" y="330"/>
                            <mxPoint x="653" y="344"/>
                        </Array>
                    </mxGeometry>
                </mxCell>
                <mxCell id="86" value="Start&amp;nbsp; Local Training" style="edgeLabel;html=1;align=center;verticalAlign=middle;resizable=0;points=[];fontSize=12;fontColor=default;movable=0;rotatable=0;deletable=0;editable=0;connectable=0;rotation=5;" vertex="1" connectable="0" parent="81">
                    <mxGeometry x="-0.1965" y="-2" relative="1" as="geometry">
                        <mxPoint x="35" y="1" as="offset"/>
                    </mxGeometry>
                </mxCell>
                <mxCell id="82" value="&lt;br&gt;&lt;font style=&quot;font-size: 13px;&quot;&gt;&lt;br&gt;&lt;/font&gt;" style="whiteSpace=wrap;html=1;rounded=0;shadow=1;fontSize=13;fontColor=#FFFFFF;movable=0;resizable=0;rotatable=0;deletable=0;editable=0;connectable=0;" vertex="1" parent="1">
                    <mxGeometry x="600" y="493" width="105" height="57.5" as="geometry"/>
                </mxCell>
                <mxCell id="83" value="&lt;br&gt;&lt;font style=&quot;font-size: 13px;&quot;&gt;&lt;br&gt;&lt;/font&gt;" style="whiteSpace=wrap;html=1;rounded=0;shadow=1;fontSize=13;fontColor=#FFFFFF;movable=0;resizable=0;rotatable=0;deletable=0;editable=0;connectable=0;" vertex="1" parent="1">
                    <mxGeometry x="600" y="570" width="105" height="57.5" as="geometry"/>
                </mxCell>
                <mxCell id="84" value="&lt;font style=&quot;font-size: 12px;&quot;&gt;Backpropagation&lt;/font&gt;" style="text;html=1;align=center;verticalAlign=middle;resizable=0;points=[];autosize=1;strokeColor=none;fillColor=none;fontSize=10;fontColor=#FFFFFF;movable=0;rotatable=0;deletable=0;editable=0;connectable=0;" vertex="1" parent="1">
                    <mxGeometry x="597.5" y="506.75" width="110" height="30" as="geometry"/>
                </mxCell>
                <mxCell id="85" value="&lt;font style=&quot;font-size: 12px;&quot;&gt;Optimizer&lt;/font&gt;" style="text;html=1;align=center;verticalAlign=middle;resizable=0;points=[];autosize=1;strokeColor=none;fillColor=none;fontSize=10;fontColor=#FFFFFF;movable=0;rotatable=0;deletable=0;editable=0;connectable=0;" vertex="1" parent="1">
                    <mxGeometry x="615" y="566" width="75" height="33.75" as="geometry"/>
                </mxCell>
                <mxCell id="88" value="Weight" style="whiteSpace=wrap;html=1;rounded=0;shadow=1;fontSize=12;fontColor=default;movable=0;resizable=0;rotatable=0;deletable=0;editable=0;connectable=0;" vertex="1" parent="1">
                    <mxGeometry x="560" y="642" width="80" height="35" as="geometry"/>
                </mxCell>
                <mxCell id="89" value="Bias" style="whiteSpace=wrap;html=1;rounded=0;shadow=1;fontSize=12;fontColor=default;movable=0;resizable=0;rotatable=0;deletable=0;editable=0;connectable=0;" vertex="1" parent="1">
                    <mxGeometry x="658" y="641" width="80" height="35" as="geometry"/>
                </mxCell>
                <mxCell id="99" value="&lt;font style=&quot;font-size: 12px;&quot;&gt;Loss Function&amp;nbsp;&lt;/font&gt;" style="text;html=1;align=center;verticalAlign=middle;resizable=0;points=[];autosize=1;strokeColor=none;fillColor=none;fontSize=10;fontColor=#FFFFFF;movable=0;rotatable=0;deletable=0;editable=0;connectable=0;" vertex="1" parent="1">
                    <mxGeometry x="604" y="600" width="96" height="26" as="geometry"/>
                </mxCell>
                <mxCell id="100" value="&lt;font style=&quot;font-size: 12px;&quot;&gt;&amp;amp;&lt;/font&gt;" style="text;html=1;align=center;verticalAlign=middle;resizable=0;points=[];autosize=1;strokeColor=none;fillColor=none;fontSize=10;fontColor=#FFFFFF;movable=0;rotatable=0;deletable=0;editable=0;connectable=0;" vertex="1" parent="1">
                    <mxGeometry x="639" y="585.75" width="26" height="26" as="geometry"/>
                </mxCell>
                <mxCell id="102" value="" style="endArrow=none;startArrow=none;html=1;fontSize=10;fontColor=#FFFFFF;entryX=0;entryY=1;entryDx=0;entryDy=0;strokeColor=#006EAF;jumpSize=6;endSize=2;startSize=2;exitX=1;exitY=0.5;exitDx=0;exitDy=0;movable=0;resizable=0;rotatable=0;deletable=0;editable=0;connectable=0;startFill=0;fillColor=#1ba1e2;" edge="1" parent="1" source="18" target="42">
                    <mxGeometry width="50" height="50" relative="1" as="geometry">
                        <mxPoint x="259.99999999999994" y="457" as="sourcePoint"/>
                        <mxPoint x="410.9210848585544" y="437.5698373974575" as="targetPoint"/>
                        <Array as="points"/>
                    </mxGeometry>
                </mxCell>
                <mxCell id="42" value="Data Transfer" style="edgeLabel;html=1;align=center;verticalAlign=middle;resizable=0;points=[];fontSize=6;fontColor=#FFFFFF;rotation=-5;movable=0;rotatable=0;deletable=0;editable=0;connectable=0;" vertex="1" connectable="0" parent="1">
                    <mxGeometry x="324.5021735309733" y="441.9989276540427" as="geometry"/>
                </mxCell>
                <mxCell id="116" value="" style="whiteSpace=wrap;html=1;rounded=0;shadow=1;fontSize=13;fontColor=#FFFFFF;movable=0;resizable=0;rotatable=0;deletable=0;editable=0;connectable=0;" vertex="1" parent="1">
                    <mxGeometry x="169" y="636.38" width="89" height="46.25" as="geometry"/>
                </mxCell>
                <mxCell id="117" value="Task Balancer" style="text;strokeColor=none;fillColor=none;align=center;verticalAlign=middle;rounded=0;shadow=1;fontSize=13;fontColor=default;whiteSpace=wrap;movable=0;resizable=0;rotatable=0;deletable=0;editable=0;connectable=0;" vertex="1" parent="1">
                    <mxGeometry x="187" y="647" width="48.5" height="25.25" as="geometry"/>
                </mxCell>
                <mxCell id="118" value="" style="edgeStyle=none;orthogonalLoop=1;jettySize=auto;html=1;strokeColor=#006EAF;fontSize=12;fontColor=default;startArrow=classic;startFill=1;endArrow=none;endFill=0;startSize=2;endSize=2;jumpSize=6;fillColor=#1ba1e2;movable=0;resizable=0;rotatable=0;deletable=0;editable=0;connectable=0;" edge="1" parent="1" source="37">
                    <mxGeometry width="100" relative="1" as="geometry">
                        <mxPoint x="237" y="537" as="sourcePoint"/>
                        <mxPoint x="258" y="549" as="targetPoint"/>
                        <Array as="points">
                            <mxPoint x="240" y="517"/>
                            <mxPoint x="251" y="538"/>
                        </Array>
                    </mxGeometry>
                </mxCell>
                <mxCell id="119" value="&lt;font style=&quot;font-size: 8px;&quot;&gt;Data&lt;/font&gt;" style="edgeLabel;html=1;align=center;verticalAlign=middle;resizable=0;points=[];fontSize=12;fontColor=default;movable=0;rotatable=0;deletable=0;editable=0;connectable=0;" vertex="1" connectable="0" parent="118">
                    <mxGeometry x="0.2857" y="1" relative="1" as="geometry">
                        <mxPoint x="-5" y="-5" as="offset"/>
                    </mxGeometry>
                </mxCell>
                <mxCell id="122" value="" style="curved=1;endArrow=classic;html=1;strokeColor=#FF6666;fontSize=8;fontColor=#FF0000;startSize=2;endSize=2;jumpSize=6;movable=0;resizable=0;rotatable=0;deletable=0;editable=0;connectable=0;exitX=0.5;exitY=1;exitDx=0;exitDy=0;" edge="1" parent="1" source="88">
                    <mxGeometry width="50" height="50" relative="1" as="geometry">
                        <mxPoint x="570" y="706" as="sourcePoint"/>
                        <mxPoint x="438" y="362" as="targetPoint"/>
                        <Array as="points">
                            <mxPoint x="550" y="709"/>
                            <mxPoint x="510" y="700"/>
                            <mxPoint x="503" y="631"/>
                            <mxPoint x="513" y="567"/>
                            <mxPoint x="541" y="344"/>
                        </Array>
                    </mxGeometry>
                </mxCell>
                <mxCell id="126" value="&lt;font style=&quot;font-size: 9px;&quot; color=&quot;#ffffff&quot;&gt;Weight&lt;br&gt;&amp;nbsp;&amp;amp; &lt;br&gt;Bias&lt;br&gt;&lt;/font&gt;" style="edgeLabel;html=1;align=center;verticalAlign=middle;resizable=0;points=[];fontSize=8;fontColor=#FFEF08;movable=0;rotatable=0;deletable=0;editable=0;connectable=0;" vertex="1" connectable="0" parent="122">
                    <mxGeometry x="-0.3547" relative="1" as="geometry">
                        <mxPoint x="2" y="-15" as="offset"/>
                    </mxGeometry>
                </mxCell>
                <mxCell id="125" value="" style="curved=1;endArrow=none;html=1;strokeColor=#FF6666;fontSize=8;fontColor=#FFEF08;startSize=2;endSize=2;jumpSize=6;endFill=0;movable=0;resizable=0;rotatable=0;deletable=0;editable=0;connectable=0;exitX=0.5;exitY=1;exitDx=0;exitDy=0;" edge="1" parent="1" source="89">
                    <mxGeometry width="50" height="50" relative="1" as="geometry">
                        <mxPoint x="697" y="683" as="sourcePoint"/>
                        <mxPoint x="508" y="675" as="targetPoint"/>
                        <Array as="points">
                            <mxPoint x="595" y="739"/>
                            <mxPoint x="520" y="722"/>
                        </Array>
                    </mxGeometry>
                </mxCell>
                <mxCell id="95" value="" style="curved=1;endArrow=classic;html=1;strokeColor=#2D7600;fontSize=12;fontColor=default;startSize=2;endSize=2;jumpSize=6;exitX=0.533;exitY=1.033;exitDx=0;exitDy=0;fillColor=#60a917;movable=0;resizable=0;rotatable=0;deletable=0;editable=0;connectable=0;exitPerimeter=0;" edge="1" parent="1" source="7">
                    <mxGeometry width="50" height="50" relative="1" as="geometry">
                        <mxPoint x="276.5" y="280" as="sourcePoint"/>
                        <mxPoint x="230" y="452" as="targetPoint"/>
                        <Array as="points">
                            <mxPoint x="335" y="258"/>
                            <mxPoint x="219" y="255"/>
                            <mxPoint x="192" y="278"/>
                            <mxPoint x="182" y="311"/>
                            <mxPoint x="178" y="345"/>
                            <mxPoint x="178" y="379"/>
                            <mxPoint x="178" y="395"/>
                            <mxPoint x="184" y="441"/>
                        </Array>
                    </mxGeometry>
                </mxCell>
                <mxCell id="128" value="&lt;span style=&quot;color: rgb(240, 240, 240); font-size: 8px;&quot;&gt;Start Training&lt;/span&gt;" style="edgeLabel;html=1;align=center;verticalAlign=middle;resizable=0;points=[];fontSize=9;fontColor=#FFFFFF;rotation=-1;movable=0;rotatable=0;deletable=0;editable=0;connectable=0;" vertex="1" connectable="0" parent="95">
                    <mxGeometry x="-0.6467" y="2" relative="1" as="geometry">
                        <mxPoint x="-57" y="-4" as="offset"/>
                    </mxGeometry>
                </mxCell>
                <mxCell id="134" value="&lt;font style=&quot;font-size: 4px;&quot;&gt;Intermediate Results/Gradients&lt;/font&gt;" style="edgeLabel;html=1;align=center;verticalAlign=middle;resizable=0;points=[];fontSize=4;fontColor=#FFFFFF;rotation=0;movable=0;rotatable=0;deletable=0;editable=0;connectable=0;" vertex="1" connectable="0" parent="1">
                    <mxGeometry x="320.0043771448163" y="461.99884691791385" as="geometry">
                        <mxPoint x="-0.08715574274765814" y="0.9961946980917455" as="offset"/>
                    </mxGeometry>
                </mxCell>
            </root>
        </mxGraphModel>
    </diagram>
</mxfile>